<svg xmlns="http://www.w3.org/2000/svg" xmlns:xlink="http://www.w3.org/1999/xlink" width="800" zoomAndPan="magnify" viewBox="0 0 600 599.999999" height="800" preserveAspectRatio="xMidYMid meet" version="1.0"><defs><clipPath id="ae74340696"><path d="M 53.28125 60.007812 L 538 60.007812 L 538 531.085938 L 53.28125 531.085938 Z M 53.28125 60.007812 " clip-rule="nonzero"/></clipPath><clipPath id="9f0a798ed0"><path d="M 40.734375 70.285156 L 563.5 70.285156 L 563.5 531.085938 L 40.734375 531.085938 Z M 40.734375 70.285156 " clip-rule="nonzero"/></clipPath></defs><g clip-path="url(#ae74340696)"><path fill="#ffb86c" d="M 129.464844 291.371094 L 80.878906 291.371094 C 78.933594 291.371094 77.367188 289.800781 77.367188 287.867188 L 77.367188 281.789062 C 77.367188 279.851562 78.933594 278.28125 80.878906 278.28125 L 129.464844 278.28125 C 131.402344 278.28125 132.972656 279.851562 132.972656 281.789062 L 132.972656 287.867188 C 132.972656 289.800781 131.402344 291.371094 129.464844 291.371094 Z M 53.621094 249.960938 L 53.621094 230.300781 L 64.273438 230.300781 L 64.273438 249.960938 C 64.273438 250.660156 63.703125 251.230469 63.003906 251.230469 L 54.886719 251.230469 C 54.1875 251.230469 53.621094 250.660156 53.621094 249.960938 Z M 141.820312 114.566406 L 141.75 114.546875 L 141.75 104.121094 C 141.75 79.761719 122.015625 60.007812 97.671875 60.007812 C 73.320312 60.007812 53.585938 79.761719 53.585938 104.121094 L 53.585938 124.515625 L 56.03125 124.515625 L 66.082031 160.246094 C 66.480469 161.648438 67.9375 162.464844 69.328125 162.074219 L 75.542969 160.324219 C 76.9375 159.925781 77.753906 158.472656 77.363281 157.070312 L 65.089844 113.472656 C 64.691406 112.078125 63.242188 111.265625 61.84375 111.660156 L 58.042969 112.726562 L 58.042969 106.035156 C 58.042969 83.945312 75.789062 69.835938 97.671875 69.835938 C 119.554688 69.835938 137.292969 83.945312 137.292969 106.035156 L 137.292969 113.285156 L 135.613281 112.816406 C 134.210938 112.421875 132.761719 113.234375 132.371094 114.636719 L 120.09375 158.226562 C 119.703125 159.632812 120.511719 161.082031 121.914062 161.480469 L 128.121094 163.230469 C 129.519531 163.621094 130.976562 162.808594 131.367188 161.410156 L 143.640625 117.8125 C 144.035156 116.414062 143.21875 114.957031 141.820312 114.566406 Z M 258.988281 128.648438 L 260.554688 130.222656 L 272.710938 118.0625 L 271.136719 116.484375 Z M 272.585938 112.453125 L 271.011719 110.878906 L 258.863281 123.035156 L 260.4375 124.613281 Z M 523.519531 531.085938 L 76.167969 531.085938 C 76.167969 531.085938 108.617188 458.652344 145.960938 418.589844 C 183.296875 378.535156 158.824219 353.117188 184.894531 293.085938 C 254.808594 132.09375 364.328125 111.570312 453.148438 134.605469 C 603.714844 173.648438 418.183594 279.453125 494.25 299.582031 C 570.320312 319.710938 523.519531 531.085938 523.519531 531.085938 " fill-opacity="1" fill-rule="nonzero"/></g><path fill="#ff5555" d="M 123.671875 430.445312 L 71.289062 430.445312 C 70.320312 430.445312 69.535156 431.234375 69.535156 432.195312 L 69.535156 436.160156 L 73.414062 436.160156 L 76.933594 474.820312 L 118.027344 474.820312 L 121.546875 436.160156 L 125.421875 436.160156 L 125.421875 432.195312 C 125.421875 431.234375 124.640625 430.445312 123.671875 430.445312 Z M 306.410156 417.484375 C 306.410156 410.816406 300.03125 405.398438 292.15625 405.398438 C 284.28125 405.398438 277.898438 410.816406 277.898438 417.484375 C 277.898438 424.164062 284.28125 429.578125 292.15625 429.578125 C 300.03125 429.578125 306.410156 424.164062 306.410156 417.484375 Z M 391.71875 364.417969 L 398.078125 377.613281 L 398.078125 364.417969 Z M 419.265625 413.3125 L 418.90625 419.433594 L 368.421875 436.117188 L 366.835938 430.96875 L 363.953125 470.871094 L 355.644531 471.132812 L 356.28125 465.257812 C 356.496094 464.277344 355.855469 463.324219 354.980469 463.324219 L 234.203125 463.324219 L 227.292969 409.0625 L 199.761719 439.476562 L 158.085938 415.355469 L 157.597656 407.230469 C 157.449219 404.824219 159.21875 402.726562 161.613281 402.464844 L 164.578125 402.136719 L 217.527344 332.410156 L 296.722656 302.21875 L 374.265625 328.195312 L 390.46875 361.820312 L 398.171875 361.820312 C 398.832031 361.820312 399.40625 362.066406 399.886719 362.550781 C 400.367188 363.039062 400.617188 363.621094 400.617188 364.296875 L 400.617188 379.652344 C 400.617188 380.328125 400.375 380.910156 399.898438 381.390625 L 412.523438 407.582031 L 416.09375 408.710938 C 418.078125 409.335938 419.382812 411.234375 419.265625 413.3125 Z M 460.207031 163.976562 L 469.523438 163.976562 C 470.265625 163.976562 470.871094 163.375 470.871094 162.636719 L 470.871094 161.003906 L 458.875 161.003906 L 458.875 162.636719 C 458.875 163.375 459.464844 163.976562 460.207031 163.976562 Z M 322.082031 130.996094 C 324.425781 130.996094 326.328125 129.09375 326.328125 126.75 C 326.328125 124.410156 324.425781 122.5 322.082031 122.5 C 319.746094 122.5 317.84375 124.410156 317.84375 126.75 C 317.84375 129.09375 319.746094 130.996094 322.082031 130.996094 Z M 317.425781 95.792969 L 214.199219 95.792969 L 214.199219 157.707031 L 317.425781 157.707031 Z M 437.078125 372.929688 C 436.71875 372.929688 436.414062 373.054688 436.167969 373.3125 C 435.914062 373.566406 435.792969 373.863281 435.792969 374.210938 L 435.792969 379.558594 L 433.230469 379.558594 L 433.230469 361.847656 L 426.785156 361.847656 C 426.433594 361.847656 426.121094 361.972656 425.875 362.222656 C 425.628906 362.476562 425.503906 362.773438 425.503906 363.132812 C 425.503906 363.492188 425.628906 363.789062 425.875 364.042969 C 426.121094 364.289062 426.433594 364.417969 426.785156 364.417969 L 430.660156 364.417969 L 430.660156 379.558594 L 426.726562 379.558594 C 426.367188 379.558594 426.0625 379.679688 425.816406 379.929688 C 425.5625 380.167969 425.441406 380.46875 425.441406 380.8125 C 425.441406 381.167969 425.5625 381.476562 425.816406 381.734375 C 426.0625 381.996094 426.367188 382.125 426.726562 382.125 L 437.078125 382.125 C 437.429688 382.125 437.734375 382 437.984375 381.746094 C 438.234375 381.5 438.359375 381.195312 438.359375 380.84375 L 438.359375 374.210938 C 438.359375 373.851562 438.234375 373.554688 437.984375 373.300781 C 437.734375 373.054688 437.429688 372.929688 437.078125 372.929688 Z M 416.96875 364.417969 L 409.152344 364.417969 L 409.152344 379.558594 L 416.96875 379.558594 Z M 418.777344 362.550781 C 419.257812 363.039062 419.503906 363.621094 419.503906 364.296875 L 419.503906 379.652344 C 419.503906 380.332031 419.257812 380.914062 418.777344 381.394531 C 418.289062 381.882812 417.714844 382.125 417.027344 382.125 L 409.058594 382.125 C 408.367188 382.125 407.785156 381.882812 407.304688 381.394531 C 406.820312 380.914062 406.582031 380.332031 406.582031 379.652344 L 406.582031 364.296875 C 406.582031 363.621094 406.828125 363.039062 407.320312 362.550781 C 407.800781 362.066406 408.382812 361.820312 409.058594 361.820312 L 417.054688 361.820312 C 417.71875 361.820312 418.289062 362.066406 418.777344 362.550781 Z M 514.882812 312.367188 L 514.882812 317.046875 L 512.316406 317.046875 L 512.316406 309.742188 C 511.488281 308.953125 510.636719 308.199219 509.75 307.484375 L 509.75 317.046875 L 505.8125 317.046875 C 505.457031 317.046875 505.152344 317.167969 504.90625 317.417969 C 504.652344 317.65625 504.535156 317.949219 504.535156 318.300781 C 504.535156 318.65625 504.652344 318.960938 504.90625 319.222656 C 505.152344 319.484375 505.457031 319.613281 505.8125 319.613281 L 516.164062 319.613281 C 516.519531 319.613281 516.824219 319.488281 517.074219 319.234375 C 517.324219 318.988281 517.449219 318.683594 517.449219 318.332031 L 517.449219 315.4375 C 516.621094 314.375 515.769531 313.355469 514.882812 312.367188 Z M 496.058594 301.902344 L 488.238281 301.902344 L 488.238281 317.046875 L 496.058594 317.046875 Z M 498.441406 300.933594 C 498.535156 301.203125 498.59375 301.480469 498.59375 301.785156 L 498.59375 317.140625 C 498.59375 317.820312 498.347656 318.402344 497.867188 318.882812 C 497.386719 319.371094 496.796875 319.613281 496.117188 319.613281 L 488.144531 319.613281 C 487.457031 319.613281 486.871094 319.371094 486.394531 318.882812 C 485.914062 318.402344 485.675781 317.820312 485.675781 317.140625 L 485.675781 301.785156 C 485.675781 301.109375 485.917969 300.527344 486.40625 300.039062 C 486.898438 299.546875 487.472656 299.304688 488.144531 299.304688 L 493.269531 299.304688 C 493.59375 299.402344 493.914062 299.496094 494.25 299.582031 C 495.695312 299.964844 497.085938 300.421875 498.441406 300.933594 Z M 477.167969 301.902344 L 469.355469 301.902344 L 469.355469 317.046875 L 477.167969 317.046875 Z M 478.976562 300.039062 C 479.464844 300.527344 479.707031 301.109375 479.707031 301.785156 L 479.707031 317.140625 C 479.707031 317.820312 479.464844 318.402344 478.976562 318.882812 C 478.496094 319.371094 477.910156 319.613281 477.226562 319.613281 L 469.261719 319.613281 C 468.566406 319.613281 467.984375 319.371094 467.503906 318.882812 C 467.027344 318.402344 466.789062 317.820312 466.789062 317.140625 L 466.789062 301.785156 C 466.789062 301.109375 467.035156 300.527344 467.523438 300.039062 C 468.007812 299.546875 468.585938 299.304688 469.261719 299.304688 L 477.261719 299.304688 C 477.921875 299.304688 478.496094 299.546875 478.976562 300.039062 Z M 459.507812 310.417969 C 459.148438 310.417969 458.84375 310.542969 458.597656 310.792969 C 458.34375 311.054688 458.222656 311.351562 458.222656 311.699219 L 458.222656 317.046875 L 455.65625 317.046875 L 455.65625 299.335938 L 449.214844 299.335938 C 448.855469 299.335938 448.558594 299.460938 448.304688 299.710938 C 448.050781 299.964844 447.933594 300.261719 447.933594 300.621094 C 447.933594 300.972656 448.050781 301.277344 448.304688 301.527344 C 448.558594 301.777344 448.855469 301.902344 449.214844 301.902344 L 453.097656 301.902344 L 453.097656 317.046875 L 449.148438 317.046875 C 448.796875 317.046875 448.492188 317.167969 448.238281 317.417969 C 448 317.65625 447.871094 317.949219 447.871094 318.300781 C 447.871094 318.65625 448 318.960938 448.238281 319.222656 C 448.492188 319.484375 448.796875 319.613281 449.148438 319.613281 L 459.507812 319.613281 C 459.859375 319.613281 460.164062 319.488281 460.410156 319.234375 C 460.660156 318.988281 460.789062 318.683594 460.789062 318.332031 L 460.789062 311.699219 C 460.789062 311.339844 460.660156 311.042969 460.410156 310.789062 C 460.164062 310.542969 459.859375 310.417969 459.507812 310.417969 Z M 439.398438 301.902344 L 431.582031 301.902344 L 431.582031 317.046875 L 439.398438 317.046875 Z M 441.207031 300.039062 C 441.6875 300.527344 441.929688 301.109375 441.929688 301.785156 L 441.929688 317.140625 C 441.929688 317.820312 441.6875 318.402344 441.207031 318.882812 C 440.71875 319.371094 440.136719 319.613281 439.457031 319.613281 L 431.488281 319.613281 C 430.796875 319.613281 430.207031 319.371094 429.734375 318.882812 C 429.25 318.402344 429.011719 317.820312 429.011719 317.140625 L 429.011719 301.785156 C 429.011719 301.109375 429.257812 300.527344 429.746094 300.039062 C 430.230469 299.546875 430.8125 299.304688 431.488281 299.304688 L 439.484375 299.304688 C 440.148438 299.304688 440.71875 299.546875 441.207031 300.039062 Z M 408.972656 243.304688 L 416.78125 243.304688 L 416.78125 228.160156 L 408.972656 228.160156 Z M 408.878906 225.558594 L 416.875 225.558594 C 417.539062 225.558594 418.105469 225.804688 418.59375 226.300781 C 419.074219 226.785156 419.316406 227.367188 419.316406 228.035156 L 419.316406 243.398438 C 419.316406 244.078125 419.074219 244.660156 418.59375 245.148438 C 418.105469 245.628906 417.527344 245.871094 416.84375 245.871094 L 408.878906 245.871094 C 408.183594 245.871094 407.597656 245.628906 407.117188 245.148438 C 406.640625 244.660156 406.398438 244.078125 406.398438 243.398438 L 406.398438 228.035156 C 406.398438 227.367188 406.644531 226.785156 407.132812 226.300781 C 407.621094 225.804688 408.203125 225.558594 408.878906 225.558594 Z M 388.765625 243.304688 C 388.410156 243.304688 388.101562 243.429688 387.855469 243.667969 C 387.605469 243.914062 387.480469 244.207031 387.480469 244.554688 C 387.480469 244.914062 387.605469 245.21875 387.855469 245.484375 C 388.101562 245.742188 388.410156 245.871094 388.765625 245.871094 L 399.117188 245.871094 C 399.472656 245.871094 399.777344 245.746094 400.023438 245.5 C 400.273438 245.246094 400.398438 244.949219 400.398438 244.589844 L 400.398438 237.957031 C 400.398438 237.597656 400.273438 237.292969 400.023438 237.046875 C 399.777344 236.792969 399.472656 236.671875 399.117188 236.671875 C 398.761719 236.671875 398.453125 236.800781 398.207031 237.054688 C 397.957031 237.3125 397.839844 237.609375 397.839844 237.957031 L 397.839844 243.304688 L 395.273438 243.304688 L 395.273438 225.59375 L 388.824219 225.59375 C 388.472656 225.59375 388.167969 225.722656 387.921875 225.96875 C 387.667969 226.222656 387.546875 226.523438 387.546875 226.878906 C 387.546875 227.238281 387.667969 227.539062 387.921875 227.785156 C 388.167969 228.035156 388.472656 228.160156 388.824219 228.160156 L 392.707031 228.160156 L 392.707031 243.304688 Z M 371.191406 243.304688 L 379.007812 243.304688 L 379.007812 228.160156 L 371.191406 228.160156 Z M 371.097656 225.558594 L 379.097656 225.558594 C 379.761719 225.558594 380.328125 225.804688 380.816406 226.300781 C 381.296875 226.785156 381.539062 227.367188 381.539062 228.035156 L 381.539062 243.398438 C 381.539062 244.078125 381.296875 244.660156 380.816406 245.148438 C 380.328125 245.628906 379.753906 245.871094 379.074219 245.871094 L 371.097656 245.871094 C 370.40625 245.871094 369.820312 245.628906 369.34375 245.148438 C 368.863281 244.660156 368.628906 244.078125 368.628906 243.398438 L 368.628906 228.035156 C 368.628906 227.367188 368.867188 226.785156 369.359375 226.300781 C 369.847656 225.804688 370.429688 225.558594 371.097656 225.558594 Z M 357.496094 225.59375 L 351.054688 225.59375 C 350.695312 225.59375 350.394531 225.722656 350.144531 225.96875 C 349.898438 226.222656 349.769531 226.523438 349.769531 226.878906 C 349.769531 227.238281 349.898438 227.539062 350.144531 227.785156 C 350.394531 228.035156 350.695312 228.160156 351.054688 228.160156 L 354.929688 228.160156 L 354.929688 243.304688 L 350.988281 243.304688 C 350.636719 243.304688 350.332031 243.429688 350.085938 243.667969 C 349.832031 243.914062 349.710938 244.207031 349.710938 244.554688 C 349.710938 244.914062 349.832031 245.21875 350.085938 245.484375 C 350.332031 245.742188 350.636719 245.871094 350.988281 245.871094 L 361.339844 245.871094 C 361.699219 245.871094 362.003906 245.746094 362.25 245.5 C 362.503906 245.246094 362.625 244.949219 362.625 244.589844 L 362.625 237.957031 C 362.625 237.597656 362.503906 237.292969 362.25 237.046875 C 362.003906 236.792969 361.699219 236.671875 361.339844 236.671875 C 360.988281 236.671875 360.683594 236.800781 360.4375 237.054688 C 360.183594 237.3125 360.0625 237.609375 360.0625 237.957031 L 360.0625 243.304688 L 357.496094 243.304688 Z M 333.414062 243.304688 L 341.238281 243.304688 L 341.238281 228.160156 L 333.414062 228.160156 Z M 333.320312 225.558594 L 341.332031 225.558594 C 341.988281 225.558594 342.5625 225.804688 343.042969 226.300781 C 343.527344 226.785156 343.765625 227.367188 343.765625 228.035156 L 343.765625 243.398438 C 343.765625 244.078125 343.527344 244.660156 343.042969 245.148438 C 342.5625 245.628906 341.976562 245.871094 341.296875 245.871094 L 333.320312 245.871094 C 332.632812 245.871094 332.046875 245.628906 331.570312 245.148438 C 331.089844 244.660156 330.847656 244.078125 330.847656 243.398438 L 330.847656 228.035156 C 330.847656 227.367188 331.097656 226.785156 331.582031 226.300781 C 332.070312 225.804688 332.652344 225.558594 333.320312 225.558594 Z M 313.21875 243.304688 C 312.859375 243.304688 312.558594 243.429688 312.308594 243.667969 C 312.058594 243.914062 311.9375 244.207031 311.9375 244.554688 C 311.9375 244.914062 312.058594 245.21875 312.308594 245.484375 C 312.558594 245.742188 312.859375 245.871094 313.21875 245.871094 L 323.570312 245.871094 C 323.921875 245.871094 324.226562 245.746094 324.480469 245.5 C 324.726562 245.246094 324.855469 244.949219 324.855469 244.589844 L 324.855469 237.957031 C 324.855469 237.597656 324.726562 237.292969 324.480469 237.046875 C 324.226562 236.792969 323.921875 236.671875 323.570312 236.671875 C 323.210938 236.671875 322.910156 236.800781 322.660156 237.054688 C 322.410156 237.3125 322.28125 237.609375 322.28125 237.957031 L 322.28125 243.304688 L 319.71875 243.304688 L 319.71875 225.59375 L 313.277344 225.59375 C 312.917969 225.59375 312.617188 225.722656 312.371094 225.96875 C 312.121094 226.222656 311.996094 226.523438 311.996094 226.878906 C 311.996094 227.238281 312.121094 227.539062 312.371094 227.785156 C 312.617188 228.035156 312.917969 228.160156 313.277344 228.160156 L 317.15625 228.160156 L 317.15625 243.304688 Z M 294.328125 243.304688 C 293.96875 243.304688 293.671875 243.429688 293.417969 243.667969 C 293.175781 243.914062 293.046875 244.207031 293.046875 244.554688 C 293.046875 244.914062 293.175781 245.21875 293.417969 245.484375 C 293.671875 245.742188 293.96875 245.871094 294.328125 245.871094 L 304.6875 245.871094 C 305.039062 245.871094 305.34375 245.746094 305.589844 245.5 C 305.835938 245.246094 305.964844 244.949219 305.964844 244.589844 L 305.964844 237.957031 C 305.964844 237.597656 305.835938 237.292969 305.589844 237.046875 C 305.34375 236.792969 305.039062 236.671875 304.6875 236.671875 C 304.320312 236.671875 304.023438 236.800781 303.769531 237.054688 C 303.523438 237.3125 303.394531 237.609375 303.394531 237.957031 L 303.394531 243.304688 L 300.835938 243.304688 L 300.835938 225.59375 L 294.394531 225.59375 C 294.035156 225.59375 293.730469 225.722656 293.484375 225.96875 C 293.230469 226.222656 293.105469 226.523438 293.105469 226.878906 C 293.105469 227.238281 293.230469 227.539062 293.484375 227.785156 C 293.730469 228.035156 294.035156 228.160156 294.394531 228.160156 L 298.273438 228.160156 L 298.273438 243.304688 Z M 276.761719 243.304688 L 284.574219 243.304688 L 284.574219 228.160156 L 276.761719 228.160156 Z M 274.90625 245.148438 C 274.429688 244.660156 274.195312 244.078125 274.195312 243.398438 L 274.195312 228.035156 C 274.195312 227.367188 274.433594 226.785156 274.921875 226.300781 C 275.414062 225.804688 275.992188 225.558594 276.667969 225.558594 L 284.664062 225.558594 C 285.328125 225.558594 285.898438 225.804688 286.382812 226.300781 C 286.867188 226.785156 287.105469 227.367188 287.105469 228.035156 L 287.105469 243.398438 C 287.105469 244.078125 286.867188 244.660156 286.382812 245.148438 C 285.898438 245.628906 285.316406 245.871094 284.632812 245.871094 L 276.667969 245.871094 C 275.972656 245.871094 275.386719 245.628906 274.90625 245.148438 Z M 488.273438 192.117188 L 480.453125 192.117188 L 480.453125 207.261719 L 488.273438 207.261719 Z M 488.332031 209.828125 L 480.363281 209.828125 C 479.671875 209.828125 479.082031 209.585938 478.609375 209.097656 C 478.125 208.617188 477.886719 208.03125 477.886719 207.351562 L 477.886719 191.992188 C 477.886719 191.324219 478.132812 190.742188 478.621094 190.25 C 479.105469 189.761719 479.6875 189.523438 480.363281 189.523438 L 488.359375 189.523438 C 489.023438 189.523438 489.59375 189.761719 490.082031 190.25 C 490.5625 190.742188 490.804688 191.324219 490.804688 191.992188 L 490.804688 207.351562 C 490.804688 208.03125 490.5625 208.617188 490.082031 209.097656 C 489.59375 209.585938 489.019531 209.828125 488.332031 209.828125 Z M 469.699219 201.011719 C 469.449219 201.269531 469.324219 201.566406 469.324219 201.914062 L 469.324219 207.261719 L 466.757812 207.261719 L 466.757812 189.546875 L 460.3125 189.546875 C 459.960938 189.546875 459.65625 189.675781 459.40625 189.925781 C 459.15625 190.171875 459.03125 190.480469 459.03125 190.835938 C 459.03125 191.1875 459.15625 191.496094 459.40625 191.742188 C 459.65625 191.992188 459.960938 192.117188 460.3125 192.117188 L 464.191406 192.117188 L 464.191406 207.261719 L 460.253906 207.261719 C 459.894531 207.261719 459.597656 207.386719 459.34375 207.625 C 459.097656 207.871094 458.972656 208.164062 458.972656 208.511719 C 458.972656 208.871094 459.097656 209.175781 459.34375 209.433594 C 459.597656 209.699219 459.894531 209.828125 460.253906 209.828125 L 470.605469 209.828125 C 470.964844 209.828125 471.261719 209.699219 471.515625 209.453125 C 471.761719 209.203125 471.886719 208.898438 471.886719 208.542969 L 471.886719 201.914062 C 471.886719 201.554688 471.761719 201.25 471.515625 201.003906 C 471.261719 200.75 470.964844 200.628906 470.605469 200.628906 C 470.253906 200.628906 469.949219 200.75 469.699219 201.011719 Z M 450.496094 192.117188 L 442.679688 192.117188 L 442.679688 207.261719 L 450.496094 207.261719 Z M 450.558594 209.828125 L 442.585938 209.828125 C 441.898438 209.828125 441.3125 209.585938 440.832031 209.097656 C 440.355469 208.617188 440.113281 208.03125 440.113281 207.351562 L 440.113281 191.992188 C 440.113281 191.324219 440.355469 190.742188 440.847656 190.25 C 441.335938 189.761719 441.917969 189.523438 442.585938 189.523438 L 450.589844 189.523438 C 451.246094 189.523438 451.820312 189.761719 452.304688 190.25 C 452.789062 190.742188 453.03125 191.324219 453.03125 191.992188 L 453.03125 207.351562 C 453.03125 208.03125 452.789062 208.617188 452.304688 209.097656 C 451.820312 209.585938 451.242188 209.828125 450.558594 209.828125 Z M 433.742188 209.453125 C 433.988281 209.203125 434.113281 208.898438 434.113281 208.542969 L 434.113281 201.914062 C 434.113281 201.554688 433.988281 201.25 433.742188 201.003906 C 433.492188 200.75 433.191406 200.628906 432.828125 200.628906 C 432.476562 200.628906 432.167969 200.75 431.921875 201.011719 C 431.675781 201.269531 431.546875 201.566406 431.546875 201.914062 L 431.546875 207.261719 L 428.980469 207.261719 L 428.980469 189.546875 L 422.539062 189.546875 C 422.183594 189.546875 421.882812 189.675781 421.628906 189.925781 C 421.382812 190.171875 421.253906 190.480469 421.253906 190.835938 C 421.253906 191.1875 421.382812 191.496094 421.628906 191.742188 C 421.882812 191.992188 422.183594 192.117188 422.539062 192.117188 L 426.414062 192.117188 L 426.414062 207.261719 L 422.476562 207.261719 C 422.125 207.261719 421.816406 207.386719 421.570312 207.625 C 421.320312 207.871094 421.195312 208.164062 421.195312 208.511719 C 421.195312 208.871094 421.320312 209.175781 421.570312 209.433594 C 421.816406 209.699219 422.125 209.828125 422.476562 209.828125 L 432.828125 209.828125 C 433.191406 209.828125 433.492188 209.699219 433.742188 209.453125 Z M 412.722656 192.117188 L 404.902344 192.117188 L 404.902344 207.261719 L 412.722656 207.261719 Z M 412.816406 189.523438 C 413.472656 189.523438 414.050781 189.761719 414.53125 190.25 C 415.019531 190.742188 415.257812 191.324219 415.257812 191.992188 L 415.257812 207.351562 C 415.257812 208.03125 415.019531 208.617188 414.53125 209.097656 C 414.050781 209.585938 413.460938 209.828125 412.78125 209.828125 L 404.8125 209.828125 C 404.121094 209.828125 403.535156 209.585938 403.058594 209.097656 C 402.578125 208.617188 402.34375 208.03125 402.34375 207.351562 L 402.34375 191.992188 C 402.34375 191.324219 402.582031 190.742188 403.070312 190.25 C 403.5625 189.761719 404.136719 189.523438 404.8125 189.523438 Z M 384.703125 207.261719 C 384.351562 207.261719 384.046875 207.386719 383.792969 207.625 C 383.546875 207.871094 383.421875 208.164062 383.421875 208.511719 C 383.421875 208.871094 383.546875 209.175781 383.792969 209.433594 C 384.046875 209.699219 384.351562 209.828125 384.703125 209.828125 L 395.054688 209.828125 C 395.414062 209.828125 395.71875 209.699219 395.964844 209.453125 C 396.210938 209.203125 396.339844 208.898438 396.339844 208.542969 L 396.339844 201.914062 C 396.339844 201.554688 396.210938 201.25 395.964844 201.003906 C 395.71875 200.75 395.414062 200.628906 395.054688 200.628906 C 394.695312 200.628906 394.398438 200.75 394.144531 201.011719 C 393.898438 201.269531 393.769531 201.566406 393.769531 201.914062 L 393.769531 207.261719 L 391.210938 207.261719 L 391.210938 189.546875 L 384.761719 189.546875 C 384.410156 189.546875 384.105469 189.675781 383.859375 189.925781 C 383.605469 190.171875 383.480469 190.480469 383.480469 190.835938 C 383.480469 191.1875 383.605469 191.496094 383.859375 191.742188 C 384.105469 191.992188 384.410156 192.117188 384.761719 192.117188 L 388.644531 192.117188 L 388.644531 207.261719 Z M 375.261719 201.011719 C 375.007812 201.269531 374.886719 201.566406 374.886719 201.914062 L 374.886719 207.261719 L 372.320312 207.261719 L 372.320312 189.546875 L 365.878906 189.546875 C 365.519531 189.546875 365.214844 189.675781 364.976562 189.925781 C 364.71875 190.171875 364.597656 190.480469 364.597656 190.835938 C 364.597656 191.1875 364.71875 191.496094 364.976562 191.742188 C 365.214844 191.992188 365.519531 192.117188 365.878906 192.117188 L 369.761719 192.117188 L 369.761719 207.261719 L 365.820312 207.261719 C 365.460938 207.261719 365.15625 207.386719 364.90625 207.625 C 364.664062 207.871094 364.535156 208.164062 364.535156 208.511719 C 364.535156 208.871094 364.664062 209.175781 364.90625 209.433594 C 365.15625 209.699219 365.460938 209.828125 365.820312 209.828125 L 376.171875 209.828125 C 376.523438 209.828125 376.828125 209.699219 377.078125 209.453125 C 377.328125 209.203125 377.453125 208.898438 377.453125 208.542969 L 377.453125 201.914062 C 377.453125 201.554688 377.328125 201.25 377.078125 201.003906 C 376.828125 200.75 376.523438 200.628906 376.171875 200.628906 C 375.8125 200.628906 375.507812 200.75 375.261719 201.011719 Z M 356.0625 192.117188 L 348.246094 192.117188 L 348.246094 207.261719 L 356.0625 207.261719 Z M 356.148438 189.523438 C 356.8125 189.523438 357.382812 189.761719 357.871094 190.25 C 358.351562 190.742188 358.59375 191.324219 358.59375 191.992188 L 358.59375 207.351562 C 358.59375 208.03125 358.351562 208.617188 357.871094 209.097656 C 357.382812 209.585938 356.808594 209.828125 356.121094 209.828125 L 348.152344 209.828125 C 347.460938 209.828125 346.875 209.585938 346.398438 209.097656 C 345.917969 208.617188 345.675781 208.03125 345.675781 207.351562 L 345.675781 191.992188 C 345.675781 191.324219 345.921875 190.742188 346.410156 190.25 C 346.898438 189.761719 347.476562 189.523438 348.152344 189.523438 Z M 404.074219 180.628906 L 411.890625 180.628906 L 411.890625 165.484375 L 404.074219 165.484375 Z M 402.222656 182.472656 C 401.742188 181.992188 401.507812 181.402344 401.507812 180.722656 L 401.507812 165.359375 C 401.507812 164.691406 401.753906 164.109375 402.234375 163.621094 C 402.730469 163.136719 403.3125 162.890625 403.980469 162.890625 L 411.984375 162.890625 C 412.640625 162.890625 413.214844 163.136719 413.699219 163.621094 C 414.179688 164.109375 414.425781 164.691406 414.425781 165.359375 L 414.425781 180.722656 C 414.425781 181.402344 414.179688 181.992188 413.699219 182.472656 C 413.214844 182.960938 412.628906 183.199219 411.949219 183.199219 L 403.980469 183.199219 C 403.289062 183.199219 402.707031 182.960938 402.222656 182.472656 Z M 383.875 180.628906 C 383.511719 180.628906 383.210938 180.75 382.960938 181 C 382.714844 181.238281 382.585938 181.53125 382.585938 181.878906 C 382.585938 182.238281 382.714844 182.546875 382.960938 182.804688 C 383.210938 183.066406 383.511719 183.199219 383.875 183.199219 L 394.222656 183.199219 C 394.574219 183.199219 394.886719 183.070312 395.132812 182.824219 C 395.382812 182.570312 395.507812 182.273438 395.507812 181.914062 L 395.507812 175.28125 C 395.507812 174.921875 395.382812 174.625 395.132812 174.371094 C 394.886719 174.117188 394.574219 173.996094 394.222656 173.996094 C 393.863281 173.996094 393.5625 174.125 393.316406 174.375 C 393.066406 174.636719 392.941406 174.933594 392.941406 175.28125 L 392.941406 180.628906 L 390.375 180.628906 L 390.375 163.976562 L 398.847656 163.976562 C 399.582031 163.976562 400.179688 163.375 400.179688 162.636719 L 400.179688 161.003906 L 388.191406 161.003906 L 388.191406 162.636719 C 388.191406 162.734375 388.234375 162.824219 388.25 162.917969 L 383.929688 162.917969 C 383.578125 162.917969 383.269531 163.046875 383.023438 163.292969 C 382.773438 163.546875 382.65625 163.851562 382.65625 164.203125 C 382.65625 164.5625 382.773438 164.859375 383.023438 165.113281 C 383.269531 165.359375 383.578125 165.484375 383.929688 165.484375 L 387.808594 165.484375 L 387.808594 180.628906 Z M 366.296875 180.628906 L 374.117188 180.628906 L 374.117188 165.484375 L 366.296875 165.484375 Z M 364.453125 182.472656 C 363.972656 181.992188 363.730469 181.402344 363.730469 180.722656 L 363.730469 165.359375 C 363.730469 164.691406 363.976562 164.109375 364.464844 163.621094 C 364.953125 163.136719 365.53125 162.890625 366.207031 162.890625 L 374.207031 162.890625 C 374.867188 162.890625 375.4375 163.136719 375.917969 163.621094 C 376.40625 164.109375 376.648438 164.691406 376.648438 165.359375 L 376.648438 180.722656 C 376.648438 181.402344 376.40625 181.992188 375.917969 182.472656 C 375.4375 182.960938 374.855469 183.199219 374.175781 183.199219 L 366.207031 183.199219 C 365.507812 183.199219 364.929688 182.960938 364.453125 182.472656 Z M 347.414062 180.628906 L 355.222656 180.628906 L 355.222656 165.484375 L 347.414062 165.484375 Z M 345.5625 182.472656 C 345.082031 181.992188 344.839844 181.402344 344.839844 180.722656 L 344.839844 165.359375 C 344.839844 164.691406 345.089844 164.109375 345.582031 163.621094 C 346.0625 163.136719 346.644531 162.890625 347.320312 162.890625 L 355.316406 162.890625 C 355.980469 162.890625 356.550781 163.136719 357.035156 163.621094 C 357.519531 164.109375 357.757812 164.691406 357.757812 165.359375 L 357.757812 180.722656 C 357.757812 181.402344 357.519531 181.992188 357.035156 182.472656 C 356.550781 182.960938 355.972656 183.199219 355.292969 183.199219 L 347.320312 183.199219 C 346.625 183.199219 346.039062 182.960938 345.5625 182.472656 Z M 328.523438 180.628906 L 336.339844 180.628906 L 336.339844 165.484375 L 328.523438 165.484375 Z M 325.957031 165.359375 C 325.957031 164.691406 326.199219 164.109375 326.691406 163.621094 C 327.179688 163.136719 327.753906 162.890625 328.429688 162.890625 L 336.433594 162.890625 C 337.089844 162.890625 337.667969 163.136719 338.148438 163.621094 C 338.628906 164.109375 338.875 164.691406 338.875 165.359375 L 338.875 180.722656 C 338.875 181.402344 338.628906 181.992188 338.148438 182.472656 C 337.667969 182.960938 337.085938 183.199219 336.402344 183.199219 L 328.429688 183.199219 C 327.742188 183.199219 327.15625 182.960938 326.675781 182.472656 C 326.199219 181.992188 325.957031 181.402344 325.957031 180.722656 Z M 317.390625 180.628906 L 314.824219 180.628906 L 314.824219 162.917969 L 308.386719 162.917969 C 308.027344 162.917969 307.726562 163.046875 307.476562 163.292969 C 307.226562 163.546875 307.097656 163.851562 307.097656 164.203125 C 307.097656 164.5625 307.226562 164.859375 307.476562 165.113281 C 307.726562 165.359375 308.027344 165.484375 308.386719 165.484375 L 312.261719 165.484375 L 312.261719 180.628906 L 308.320312 180.628906 C 307.96875 180.628906 307.664062 180.75 307.417969 181 C 307.164062 181.238281 307.039062 181.53125 307.039062 181.878906 C 307.039062 182.238281 307.164062 182.546875 307.417969 182.804688 C 307.664062 183.066406 307.96875 183.199219 308.320312 183.199219 L 318.671875 183.199219 C 319.03125 183.199219 319.328125 183.070312 319.582031 182.824219 C 319.835938 182.570312 319.957031 182.273438 319.957031 181.914062 L 319.957031 175.28125 C 319.957031 174.921875 319.835938 174.625 319.582031 174.371094 C 319.328125 174.117188 319.03125 173.996094 318.671875 173.996094 C 318.320312 173.996094 318.015625 174.125 317.769531 174.375 C 317.515625 174.636719 317.390625 174.933594 317.390625 175.28125 Z M 289.429688 180.628906 C 289.078125 180.628906 288.773438 180.75 288.527344 181 C 288.28125 181.238281 288.152344 181.53125 288.152344 181.878906 C 288.152344 182.238281 288.28125 182.546875 288.527344 182.804688 C 288.773438 183.066406 289.078125 183.199219 289.429688 183.199219 L 299.789062 183.199219 C 300.140625 183.199219 300.445312 183.070312 300.699219 182.824219 C 300.945312 182.570312 301.070312 182.273438 301.070312 181.914062 L 301.070312 175.28125 C 301.070312 174.921875 300.945312 174.625 300.699219 174.371094 C 300.445312 174.117188 300.140625 173.996094 299.789062 173.996094 C 299.429688 173.996094 299.132812 174.125 298.878906 174.375 C 298.632812 174.636719 298.503906 174.933594 298.503906 175.28125 L 298.503906 180.628906 L 295.9375 180.628906 L 295.9375 162.917969 L 289.496094 162.917969 C 289.136719 162.917969 288.839844 163.046875 288.589844 163.292969 C 288.339844 163.546875 288.214844 163.851562 288.214844 164.203125 C 288.214844 164.5625 288.339844 164.859375 288.589844 165.113281 C 288.839844 165.359375 289.136719 165.484375 289.496094 165.484375 L 293.378906 165.484375 L 293.378906 180.628906 Z M 269.296875 172.335938 L 269.296875 180.722656 C 269.296875 181.402344 269.53125 181.992188 270.015625 182.472656 C 270.496094 182.960938 271.078125 183.199219 271.769531 183.199219 L 279.738281 183.199219 C 280.417969 183.199219 281.003906 182.960938 281.488281 182.472656 C 281.972656 181.992188 282.214844 181.402344 282.214844 180.722656 L 282.214844 165.359375 C 282.214844 164.691406 281.972656 164.109375 281.488281 163.621094 C 281.335938 163.464844 281.160156 163.339844 280.980469 163.230469 C 279.960938 163.96875 278.945312 164.726562 277.929688 165.484375 L 279.679688 165.484375 L 279.679688 180.628906 L 271.863281 180.628906 L 271.863281 170.234375 C 271.007812 170.917969 270.148438 171.625 269.296875 172.335938 Z M 89.546875 225.941406 L 94.035156 225.941406 L 94.035156 218.34375 L 94.734375 218.34375 L 94.734375 225.941406 L 98.769531 225.941406 C 100.015625 225.941406 101.054688 225.589844 101.859375 224.882812 C 102.6875 224.15625 103.121094 223.152344 103.121094 221.988281 C 103.121094 221.082031 102.851562 220.300781 102.328125 219.710938 C 102.820312 219.027344 102.957031 218.308594 102.957031 217.738281 C 102.957031 216.628906 102.527344 215.65625 101.71875 214.933594 C 100.917969 214.21875 99.738281 213.871094 98.117188 213.871094 L 88.023438 213.871094 L 88.023438 218.34375 L 89.546875 218.34375 Z M 83.144531 218.164062 L 81.886719 218.164062 L 81.886719 213.871094 L 87.496094 213.871094 L 87.496094 225.941406 L 83.144531 225.941406 L 83.144531 218.164062 " fill-opacity="1" fill-rule="nonzero"/><path fill="#fed2af" d="M 316.792969 297.179688 L 316.792969 310.03125 L 323.003906 314.863281 C 323.003906 314.863281 301.753906 338.265625 294.074219 338.265625 C 286.441406 338.265625 265.546875 316.71875 265.546875 316.71875 L 272.621094 311.605469 L 272.621094 298.632812 C 269.566406 295.480469 267.648438 291.289062 267.417969 286.046875 L 266.855469 272.269531 C 262.738281 272.644531 256.117188 260.804688 259.664062 255.222656 C 261.671875 252.0625 264.238281 254.1875 266.226562 256.929688 L 265.511719 239.378906 C 265.234375 233.25 270.132812 228.136719 276.253906 228.136719 L 311.902344 228.136719 C 318.027344 228.136719 322.910156 233.25 322.640625 239.378906 L 321.738281 261.542969 C 323.085938 257.828125 326.253906 250.636719 329.171875 255.222656 C 332.917969 261.113281 325.3125 274.007812 321.308594 272.082031 L 320.738281 286.046875 C 320.539062 290.519531 319.101562 294.222656 316.792969 297.179688 Z M 196.800781 437.761719 L 161.558594 417.367188 L 146.28125 439.480469 L 146.246094 439.476562 L 140.246094 448.367188 C 134.402344 457.027344 143.433594 476.386719 153.820312 477.460938 L 246.828125 479.832031 L 247.320312 475.03125 L 220.339844 475.03125 L 219.476562 466.089844 C 219.167969 464.695312 220.082031 463.324219 221.339844 463.324219 L 248.53125 463.324219 L 249.886719 450.175781 L 192.046875 444.207031 Z M 409.394531 478.300781 L 355.585938 471.714844 L 356.28125 465.257812 C 356.496094 464.277344 355.855469 463.324219 354.980469 463.324219 L 317.210938 463.324219 L 318.367188 437.214844 L 375.03125 439.734375 L 372.367188 434.8125 L 413.261719 421.300781 L 426.082031 449.425781 L 427.085938 451.515625 C 431.59375 460.9375 419.820312 478.765625 409.394531 478.300781 " fill-opacity="1" fill-rule="nonzero"/><g clip-path="url(#9f0a798ed0)"><path fill="#44475a" d="M 114.535156 442.890625 L 114.535156 446.300781 C 114.535156 446.917969 115.035156 447.417969 115.644531 447.417969 C 116.261719 447.417969 116.761719 446.917969 116.761719 446.300781 L 116.761719 442.890625 C 116.761719 442.28125 116.261719 441.78125 115.644531 441.78125 C 115.035156 441.78125 114.535156 442.28125 114.535156 442.890625 Z M 111.421875 446.300781 L 111.421875 442.890625 C 111.421875 442.28125 110.921875 441.78125 110.308594 441.78125 C 109.691406 441.78125 109.191406 442.28125 109.191406 442.890625 L 109.191406 446.300781 C 109.191406 446.917969 109.691406 447.417969 110.308594 447.417969 C 110.921875 447.417969 111.421875 446.917969 111.421875 446.300781 Z M 106.078125 446.300781 L 106.078125 442.890625 C 106.078125 442.28125 105.585938 441.78125 104.96875 441.78125 C 104.351562 441.78125 103.855469 442.28125 103.855469 442.890625 L 103.855469 446.300781 C 103.855469 446.917969 104.351562 447.417969 104.96875 447.417969 C 105.585938 447.417969 106.078125 446.917969 106.078125 446.300781 Z M 100.742188 446.300781 L 100.742188 442.890625 C 100.742188 442.28125 100.242188 441.78125 99.632812 441.78125 C 99.011719 441.78125 98.515625 442.28125 98.515625 442.890625 L 98.515625 446.300781 C 98.515625 446.917969 99.011719 447.417969 99.632812 447.417969 C 100.242188 447.417969 100.742188 446.917969 100.742188 446.300781 Z M 95.40625 446.300781 L 95.40625 442.890625 C 95.40625 442.28125 94.90625 441.78125 94.289062 441.78125 C 93.679688 441.78125 93.179688 442.28125 93.179688 442.890625 L 93.179688 446.300781 C 93.179688 446.917969 93.679688 447.417969 94.289062 447.417969 C 94.90625 447.417969 95.40625 446.917969 95.40625 446.300781 Z M 90.066406 446.300781 L 90.066406 442.890625 C 90.066406 442.28125 89.570312 441.78125 88.953125 441.78125 C 88.335938 441.78125 87.84375 442.28125 87.84375 442.890625 L 87.84375 446.300781 C 87.84375 446.917969 88.335938 447.417969 88.953125 447.417969 C 89.570312 447.417969 90.066406 446.917969 90.066406 446.300781 Z M 84.730469 446.300781 L 84.730469 442.890625 C 84.730469 442.28125 84.230469 441.78125 83.613281 441.78125 C 83 441.78125 82.5 442.28125 82.5 442.890625 L 82.5 446.300781 C 82.5 446.917969 83 447.417969 83.613281 447.417969 C 84.230469 447.417969 84.730469 446.917969 84.730469 446.300781 Z M 79.386719 442.890625 C 79.386719 442.28125 78.886719 441.78125 78.277344 441.78125 C 77.660156 441.78125 77.160156 442.28125 77.160156 442.890625 L 77.160156 446.300781 C 77.160156 446.917969 77.660156 447.417969 78.277344 447.417969 C 78.886719 447.417969 79.386719 446.917969 79.386719 446.300781 Z M 80.15625 452.695312 L 112.515625 452.695312 C 113.132812 452.695312 113.628906 452.195312 113.628906 451.578125 C 113.628906 450.964844 113.132812 450.464844 112.515625 450.464844 L 80.15625 450.464844 C 79.539062 450.464844 79.046875 450.964844 79.046875 451.578125 C 79.046875 452.195312 79.539062 452.695312 80.15625 452.695312 Z M 309.058594 253.835938 C 307.039062 253.824219 305.0625 254.335938 303.46875 255.375 C 302.953125 255.714844 302.8125 256.40625 303.148438 256.917969 C 303.480469 257.429688 304.175781 257.574219 304.6875 257.242188 C 305.882812 256.453125 307.464844 256.007812 309.011719 256.0625 C 310.5625 256.097656 312.113281 256.59375 313.265625 257.433594 C 313.457031 257.574219 313.6875 257.644531 313.910156 257.644531 C 314.261719 257.644531 314.597656 257.488281 314.8125 257.1875 C 315.171875 256.6875 315.066406 255.996094 314.566406 255.636719 C 313.042969 254.523438 311.078125 253.882812 309.058594 253.835938 Z M 281.398438 254.070312 C 279.378906 253.949219 277.378906 254.441406 275.726562 255.421875 C 275.203125 255.730469 275.027344 256.417969 275.34375 256.945312 C 275.65625 257.46875 276.335938 257.644531 276.867188 257.335938 C 278.117188 256.582031 279.71875 256.21875 281.277344 256.296875 C 282.8125 256.378906 284.324219 256.929688 285.421875 257.804688 C 285.625 257.96875 285.867188 258.042969 286.109375 258.042969 C 286.4375 258.042969 286.761719 257.898438 286.976562 257.628906 C 287.363281 257.148438 287.28125 256.449219 286.808594 256.0625 C 285.339844 254.894531 283.417969 254.1875 281.398438 254.070312 Z M 284.699219 291.976562 C 284.605469 292.578125 285.011719 293.15625 285.613281 293.253906 C 285.890625 293.300781 290.304688 294.015625 295.28125 294.015625 C 297.875 294.015625 300.621094 293.816406 303.019531 293.242188 C 303.617188 293.089844 303.988281 292.492188 303.839844 291.890625 C 303.695312 291.300781 303.089844 290.925781 302.496094 291.078125 C 295.9375 292.671875 286.078125 291.078125 285.980469 291.058594 C 285.363281 290.953125 284.796875 291.371094 284.699219 291.976562 Z M 167.132812 405.300781 C 167.378906 405.417969 191.804688 416.492188 198.949219 424.078125 C 199.167969 424.308594 199.460938 424.425781 199.753906 424.425781 C 200.03125 424.425781 200.308594 424.324219 200.523438 424.117188 C 200.96875 423.703125 200.988281 422.996094 200.570312 422.546875 C 193.125 414.648438 169.070312 403.738281 168.046875 403.273438 C 167.484375 403.019531 166.828125 403.273438 166.574219 403.832031 C 166.320312 404.390625 166.574219 405.050781 167.132812 405.300781 Z M 370.023438 426.074219 C 370.292969 426.074219 370.566406 425.972656 370.78125 425.773438 C 382.75 414.597656 407.304688 409.429688 407.550781 409.378906 C 408.148438 409.253906 408.535156 408.667969 408.417969 408.070312 C 408.296875 407.464844 407.703125 407.078125 407.105469 407.199219 C 406.070312 407.414062 381.6875 412.535156 369.265625 424.148438 C 368.816406 424.566406 368.792969 425.269531 369.214844 425.722656 C 369.425781 425.949219 369.726562 426.074219 370.023438 426.074219 Z M 321.261719 246.78125 C 321.367188 244.449219 319.195312 242.6875 316.945312 243.265625 L 295.894531 248.710938 C 295.894531 248.710938 282.402344 245.417969 273.625 243.304688 C 270.25 242.496094 267.015625 245.078125 267.042969 248.554688 L 267.121094 257.9375 L 267.824219 259.710938 C 268.28125 259.070312 269.035156 258.65625 269.878906 258.65625 L 289.835938 258.65625 C 291.222656 258.65625 292.355469 259.789062 292.355469 261.179688 L 292.355469 261.308594 L 297.914062 261.308594 L 297.914062 260.925781 C 297.914062 259.675781 298.929688 258.65625 300.183594 258.65625 L 320.644531 258.65625 C 320.667969 258.65625 320.6875 258.667969 320.703125 258.667969 Z M 320.691406 264.8125 C 320.667969 264.90625 320.640625 265.007812 320.621094 265.09375 L 320.398438 265.207031 L 320.597656 260.925781 L 300.183594 260.886719 L 300.140625 273.242188 L 320.644531 273.285156 L 320.691406 273.242188 Z M 290.128906 261.179688 C 290.128906 261.019531 289.996094 260.886719 289.835938 260.886719 L 269.878906 260.886719 C 269.707031 260.886719 269.578125 261.019531 269.578125 261.179688 L 269.578125 272.992188 C 269.578125 273.15625 269.707031 273.285156 269.878906 273.285156 L 289.835938 273.285156 C 289.996094 273.285156 290.128906 273.15625 290.128906 272.992188 Z M 326.898438 217.539062 C 331.683594 225.210938 332.242188 237.667969 327.964844 253.972656 C 327.515625 253.71875 327.066406 253.699219 326.621094 253.84375 L 322.910156 263.144531 L 322.910156 273.242188 C 322.910156 274.492188 321.894531 275.507812 320.644531 275.507812 L 300.183594 275.507812 C 298.929688 275.507812 297.914062 274.492188 297.914062 273.242188 L 297.914062 263.535156 L 292.355469 263.535156 L 292.355469 272.992188 C 292.355469 274.382812 291.222656 275.507812 289.835938 275.507812 L 269.878906 275.507812 C 268.488281 275.507812 267.355469 274.382812 267.355469 272.992188 L 267.355469 263.898438 C 267.148438 263.78125 266.976562 263.585938 266.882812 263.351562 L 263.136719 253.960938 C 262.371094 253.582031 261.589844 253.519531 260.855469 253.972656 C 257.878906 245.253906 255.171875 233.15625 258.652344 223.972656 C 271.007812 191.425781 309.03125 212.535156 309.03125 212.535156 C 309.03125 212.535156 321.285156 208.535156 326.898438 217.539062 Z M 483.558594 114.335938 C 483.222656 114.851562 483.363281 115.546875 483.878906 115.878906 C 484.070312 116.003906 484.28125 116.0625 484.484375 116.0625 C 484.847656 116.0625 485.207031 115.886719 485.417969 115.5625 C 502.875 89.007812 486.09375 70.933594 485.917969 70.75 C 485.496094 70.308594 484.789062 70.292969 484.351562 70.722656 C 483.902344 71.144531 483.890625 71.847656 484.316406 72.292969 C 484.472656 72.457031 500.058594 89.246094 483.558594 114.335938 Z M 476.410156 112.503906 C 476.601562 112.628906 476.8125 112.6875 477.023438 112.6875 C 477.386719 112.6875 477.738281 112.511719 477.949219 112.183594 C 491.644531 91.359375 478.449219 77.15625 478.3125 77.015625 C 477.890625 76.566406 477.191406 76.550781 476.746094 76.976562 C 476.300781 77.394531 476.289062 78.105469 476.707031 78.550781 C 477.203125 79.074219 488.789062 91.664062 476.09375 110.960938 C 475.753906 111.476562 475.894531 112.171875 476.410156 112.503906 Z M 469.027344 106.398438 C 469.21875 106.527344 469.429688 106.585938 469.636719 106.585938 C 469.996094 106.585938 470.351562 106.410156 470.5625 106.082031 C 479.496094 92.515625 470.839844 83.207031 470.75 83.113281 C 470.328125 82.667969 469.628906 82.65625 469.191406 83.078125 C 468.742188 83.5 468.726562 84.199219 469.144531 84.644531 C 469.453125 84.972656 476.628906 92.816406 468.707031 104.863281 C 468.375 105.378906 468.515625 106.066406 469.027344 106.398438 Z M 437.757812 116.84375 C 437.96875 116.84375 438.183594 116.785156 438.371094 116.660156 C 438.878906 116.328125 439.027344 115.632812 438.6875 115.117188 C 422.230469 90.09375 437.285156 73.753906 437.933594 73.070312 C 438.359375 72.621094 438.339844 71.917969 437.894531 71.5 C 437.453125 71.074219 436.75 71.089844 436.328125 71.53125 C 436.15625 71.710938 419.371094 89.789062 436.824219 116.34375 C 437.042969 116.667969 437.394531 116.84375 437.757812 116.84375 Z M 444.300781 112.960938 C 444.511719 113.292969 444.859375 113.46875 445.222656 113.46875 C 445.433594 113.46875 445.644531 113.410156 445.832031 113.285156 C 446.347656 112.945312 446.492188 112.257812 446.148438 111.742188 C 433.460938 92.445312 445.035156 79.855469 445.539062 79.332031 C 445.960938 78.886719 445.949219 78.183594 445.503906 77.757812 C 445.058594 77.332031 444.351562 77.347656 443.929688 77.792969 C 443.796875 77.933594 430.601562 92.140625 444.300781 112.960938 Z M 452.609375 107.367188 C 452.8125 107.367188 453.03125 107.308594 453.21875 107.179688 C 453.730469 106.839844 453.875 106.152344 453.535156 105.644531 C 445.617188 93.597656 452.789062 85.761719 453.101562 85.429688 C 453.523438 84.984375 453.507812 84.28125 453.066406 83.859375 C 452.621094 83.4375 451.914062 83.449219 451.492188 83.894531 C 451.40625 83.988281 442.757812 93.296875 451.679688 106.863281 C 451.890625 107.191406 452.25 107.367188 452.609375 107.367188 Z M 125.421875 436.160156 L 69.535156 436.160156 L 73.621094 440.285156 L 121.332031 440.285156 Z M 127.609375 372.230469 C 127.609375 369.15625 125.121094 366.667969 122.050781 366.667969 C 118.980469 366.667969 116.488281 369.15625 116.488281 372.230469 L 116.488281 390.828125 L 109.210938 390.828125 L 109.210938 361.441406 C 109.210938 357.261719 105.816406 353.863281 101.628906 353.863281 L 94.335938 353.863281 C 90.148438 353.863281 86.761719 357.261719 86.761719 361.441406 L 86.761719 402.914062 L 80.890625 402.914062 L 80.890625 384.3125 C 80.890625 381.238281 78.402344 378.75 75.328125 378.75 C 72.265625 378.75 69.777344 381.238281 69.777344 384.3125 L 69.777344 403.351562 C 69.777344 409.242188 74.566406 414.039062 80.460938 414.039062 L 86.761719 414.039062 L 86.761719 430.445312 L 109.210938 430.445312 L 109.210938 401.957031 L 116.917969 401.957031 C 122.8125 401.957031 127.609375 397.164062 127.609375 391.261719 Z M 489.382812 433.929688 L 489.382812 456.292969 L 492.757812 456.292969 C 493.332031 456.292969 493.84375 455.929688 494.039062 455.382812 L 497.222656 446.402344 C 498.523438 442.722656 498.722656 438.765625 497.800781 434.960938 C 497.65625 434.355469 497.109375 433.929688 496.480469 433.929688 Z M 489.382812 428.363281 L 496.480469 428.363281 C 499.679688 428.363281 502.441406 430.535156 503.203125 433.644531 C 504.382812 438.5 504.125 443.5625 502.457031 448.269531 L 499.277344 457.246094 C 498.296875 460.003906 495.683594 461.851562 492.757812 461.851562 L 489.382812 461.851562 L 489.382812 473.960938 C 489.382812 476.160156 487.601562 477.9375 485.414062 477.9375 L 452.789062 477.9375 C 450.601562 477.9375 448.820312 476.160156 448.820312 473.960938 L 448.820312 425.28125 L 489.382812 425.28125 Z M 306.410156 417.484375 C 306.410156 410.816406 300.03125 405.398438 292.15625 405.398438 C 284.28125 405.398438 277.898438 410.816406 277.898438 417.484375 C 277.898438 424.164062 284.28125 429.578125 292.15625 429.578125 C 300.03125 429.578125 306.410156 424.164062 306.410156 417.484375 Z M 356.847656 364.21875 C 357.320312 351.453125 362.074219 341.628906 362.292969 341.195312 C 362.5625 340.644531 363.226562 340.414062 363.785156 340.6875 C 364.328125 340.957031 364.558594 341.625 364.289062 342.175781 C 364.234375 342.277344 359.5625 351.957031 359.074219 364.21875 L 363.253906 364.21875 C 366.171875 364.21875 368.515625 366.636719 368.414062 369.554688 L 365.34375 462.476562 C 365.257812 465.261719 362.972656 467.46875 360.183594 467.46875 L 219.921875 467.46875 C 217.140625 467.46875 214.855469 465.261719 214.761719 462.476562 L 211.691406 369.554688 C 211.597656 366.636719 213.933594 364.21875 216.859375 364.21875 L 224.585938 364.21875 C 224.875 358.3125 220.816406 349.390625 220.773438 349.304688 C 220.515625 348.746094 220.761719 348.089844 221.320312 347.828125 C 221.878906 347.570312 222.535156 347.816406 222.792969 348.371094 C 222.972656 348.769531 227.0625 357.769531 226.8125 364.21875 L 288.390625 364.21875 L 288.117188 344.171875 C 288.085938 342.199219 289.144531 340.378906 290.871094 339.421875 L 292.777344 338.371094 L 280.582031 332.484375 C 278.328125 331.339844 276.355469 330.101562 274.664062 331.796875 L 268.886719 337.609375 C 267.800781 338.695312 265.949219 337.957031 265.914062 336.417969 L 265.515625 316.917969 C 265.105469 313.507812 272.621094 298.742188 272.621094 298.742188 C 272.621094 298.742188 276.265625 322.835938 293.300781 338.085938 L 297 336.046875 C 313.617188 322.582031 316.792969 297.222656 316.792969 297.222656 C 316.792969 297.222656 323.382812 311.457031 323.003906 314.863281 L 324.101562 332.34375 C 324.203125 333.894531 322.453125 334.863281 321.195312 333.953125 L 319.777344 332.929688 C 317.039062 330.957031 312.992188 330.507812 309.628906 331.78125 L 299.746094 335.824219 L 299.746094 364.21875 Z M 556.964844 478.183594 L 365.699219 478.183594 L 366.570312 471.109375 C 366.824219 470.128906 366.085938 469.179688 365.082031 469.179688 L 211.328125 469.179688 C 209.882812 469.179688 208.828125 470.546875 209.191406 471.945312 L 209.882812 478.183594 L 113.707031 478.183594 L 115.140625 474.820312 L 78.453125 474.820312 L 79.886719 478.183594 L 47.28125 478.183594 C 43.664062 478.183594 40.734375 481.117188 40.734375 484.734375 L 40.734375 493.59375 C 40.734375 497.207031 43.664062 500.136719 47.28125 500.136719 L 84.148438 500.136719 L 84.148438 531.085938 L 518.667969 531.085938 L 518.667969 500.136719 L 556.964844 500.136719 C 560.574219 500.136719 563.5 497.207031 563.5 493.59375 L 563.5 484.734375 C 563.5 481.117188 560.574219 478.183594 556.964844 478.183594 Z M 297.992188 283.425781 C 300.40625 282.554688 296.945312 275.777344 295.171875 272.613281 C 294.785156 271.921875 293.835938 271.988281 293.546875 272.71875 C 292.359375 275.789062 290.03125 281.976562 290.046875 283.191406 C 290.078125 284.832031 294.839844 284.578125 297.992188 283.425781 Z M 282.15625 262.523438 C 281.015625 262.523438 280.09375 263.9375 280.09375 265.683594 C 280.09375 267.425781 281.015625 268.839844 282.15625 268.839844 C 283.296875 268.839844 284.21875 267.425781 284.21875 265.683594 C 284.21875 263.9375 283.296875 262.523438 282.15625 262.523438 Z M 308.078125 262.523438 C 306.941406 262.523438 306.011719 263.9375 306.011719 265.683594 C 306.011719 267.425781 306.941406 268.839844 308.078125 268.839844 C 309.21875 268.839844 310.140625 267.425781 310.140625 265.683594 C 310.140625 263.9375 309.21875 262.523438 308.078125 262.523438 Z M 293.257812 319.582031 C 297.152344 320.769531 313.417969 304.414062 316.5 297.5625 C 312.179688 302.804688 304.972656 305.511719 296.835938 305.511719 L 291.316406 305.511719 C 284.222656 305.511719 277.839844 303.457031 273.449219 299.453125 C 278.949219 305.910156 290.066406 318.601562 293.257812 319.582031 Z M 270.320312 295.730469 C 270.320312 295.730469 270.34375 295.765625 270.390625 295.820312 C 270.367188 295.789062 270.355469 295.761719 270.332031 295.730469 Z M 431.222656 146.527344 C 431.222656 148.167969 432.550781 149.5 434.1875 149.5 C 435.828125 149.5 437.15625 148.167969 437.15625 146.527344 C 437.15625 144.890625 435.828125 143.5625 434.1875 143.5625 C 432.550781 143.5625 431.222656 144.890625 431.222656 146.527344 Z M 442.792969 146.527344 C 442.792969 148.167969 444.125 149.5 445.757812 149.5 C 447.394531 149.5 448.722656 148.167969 448.722656 146.527344 C 448.722656 144.890625 447.394531 143.5625 445.757812 143.5625 C 444.125 143.5625 442.792969 144.890625 442.792969 146.527344 Z M 454.546875 146.527344 C 454.546875 148.167969 455.878906 149.5 457.515625 149.5 C 459.15625 149.5 460.480469 148.167969 460.480469 146.527344 C 460.480469 144.890625 459.15625 143.5625 457.515625 143.5625 C 455.878906 143.5625 454.546875 144.890625 454.546875 146.527344 Z M 400.796875 146.527344 C 400.796875 144.890625 399.472656 143.5625 397.832031 143.5625 C 396.195312 143.5625 394.867188 144.890625 394.867188 146.527344 C 394.867188 148.167969 396.195312 149.5 397.832031 149.5 C 399.472656 149.5 400.796875 148.167969 400.796875 146.527344 Z M 383.1875 154.71875 L 380.351562 154.71875 L 380.351562 137.542969 L 383.1875 137.542969 L 383.1875 133.398438 C 383.1875 132.65625 383.792969 132.058594 384.527344 132.058594 L 400.320312 132.058594 L 429.574219 124.757812 C 430.597656 124.496094 431.636719 125.121094 431.886719 126.140625 L 432.375 128.097656 C 432.628906 129.117188 432.011719 130.15625 430.988281 130.410156 L 424.390625 132.058594 L 457.570312 132.058594 L 457.570312 92.621094 C 457.570312 91.566406 458.421875 90.714844 459.472656 90.714844 L 461.492188 90.714844 C 462.542969 90.714844 463.394531 91.566406 463.394531 92.621094 L 463.394531 132.058594 L 473.765625 132.058594 C 474.503906 132.058594 475.101562 132.65625 475.101562 133.398438 L 475.101562 137.542969 L 477.726562 137.542969 L 477.726562 154.71875 L 475.101562 154.71875 L 475.101562 159.667969 C 475.101562 160.40625 474.503906 161.003906 473.765625 161.003906 L 384.527344 161.003906 C 383.792969 161.003906 383.1875 160.40625 383.1875 159.667969 Z M 215.3125 156.597656 L 316.316406 156.597656 L 316.316406 96.902344 L 215.3125 96.902344 Z M 318.953125 126.75 C 318.953125 128.476562 320.355469 129.886719 322.082031 129.886719 C 323.808594 129.886719 325.21875 128.476562 325.21875 126.75 C 325.21875 125.019531 323.808594 123.617188 322.082031 123.617188 C 320.355469 123.617188 318.953125 125.019531 318.953125 126.75 Z M 202.679688 156.613281 L 202.679688 96.882812 C 202.679688 93.433594 205.484375 90.632812 208.9375 90.632812 L 322.753906 90.632812 C 326.207031 90.632812 329 93.433594 329 96.882812 L 329 156.613281 C 329 160.070312 326.207031 162.871094 322.753906 162.871094 L 208.9375 162.871094 C 205.484375 162.871094 202.679688 160.070312 202.679688 156.613281 Z M 55.136719 232.355469 L 55.136719 234.246094 L 57.027344 234.246094 L 57.027344 232.355469 Z M 60.5625 232.355469 L 60.5625 234.246094 L 62.449219 234.246094 L 62.449219 232.355469 Z M 102.011719 221.988281 C 102.011719 220.925781 101.535156 220.207031 100.570312 219.828125 C 101.417969 219.300781 101.839844 218.601562 101.839844 217.738281 C 101.839844 216.9375 101.550781 216.277344 100.972656 215.757812 C 100.394531 215.238281 99.445312 214.980469 98.117188 214.980469 L 95.851562 214.980469 L 95.851562 224.832031 L 98.769531 224.832031 C 99.742188 224.832031 100.53125 224.566406 101.117188 224.042969 C 101.71875 223.527344 102.011719 222.839844 102.011719 221.988281 Z M 94.464844 214.980469 L 89.132812 214.980469 L 89.132812 217.230469 L 90.660156 217.230469 L 90.660156 224.832031 L 92.921875 224.832031 L 92.921875 217.230469 L 94.464844 217.230469 Z M 86.378906 214.980469 L 83 214.980469 L 83 217.046875 L 84.253906 217.046875 L 84.253906 224.832031 L 86.378906 224.832031 Z M 131.726562 288.980469 L 122.75 288.980469 C 122.855469 289.152344 122.929688 289.339844 122.929688 289.554688 L 122.929688 303.527344 C 122.929688 306.933594 121.597656 310.113281 119.171875 312.492188 C 116.808594 314.828125 113.6875 316.101562 110.378906 316.101562 C 110.300781 316.101562 110.226562 316.09375 110.148438 316.09375 L 70.519531 315.410156 C 63.820312 315.296875 58.402344 309.957031 58.183594 303.25 L 57.890625 253.8125 L 53.882812 253.8125 C 53.183594 253.8125 52.613281 253.25 52.613281 252.542969 L 52.613281 237.992188 L 58.40625 237.992188 L 58.40625 232.355469 L 59.484375 232.355469 L 59.484375 237.992188 L 65.277344 237.992188 L 65.277344 252.542969 C 65.277344 253.25 64.714844 253.8125 64.019531 253.8125 L 60.117188 253.8125 L 60.40625 303.210938 C 60.585938 308.699219 65.042969 313.089844 70.554688 313.183594 L 110.191406 313.875 C 112.96875 313.910156 115.621094 312.867188 117.617188 310.90625 C 119.609375 308.945312 120.707031 306.328125 120.707031 303.527344 L 120.707031 289.554688 C 120.707031 289.339844 120.789062 289.152344 120.886719 288.980469 L 79.621094 288.980469 C 77.484375 288.980469 75.753906 287.25 75.753906 285.105469 L 75.753906 213.730469 C 75.753906 211.59375 77.484375 209.855469 79.621094 209.855469 L 131.726562 209.855469 C 133.871094 209.855469 135.601562 211.59375 135.601562 213.730469 L 135.601562 285.105469 C 135.601562 287.25 133.871094 288.980469 131.726562 288.980469 Z M 98.269531 220.78125 L 98.082031 220.78125 L 98.082031 222.910156 C 98.652344 222.898438 99.070312 222.816406 99.355469 222.648438 C 99.636719 222.484375 99.78125 222.214844 99.78125 221.832031 C 99.78125 221.132812 99.273438 220.78125 98.269531 220.78125 Z M 99.578125 217.957031 C 99.578125 217.558594 99.457031 217.277344 99.222656 217.125 C 98.988281 216.964844 98.605469 216.882812 98.082031 216.871094 L 98.082031 218.996094 C 99.082031 218.96875 99.578125 218.621094 99.578125 217.957031 Z M 61.765625 160.621094 C 62.542969 161.152344 63.511719 161.308594 64.414062 161.070312 L 66.21875 160.585938 C 66.171875 160.476562 66.125 160.371094 66.082031 160.246094 L 53.816406 116.65625 C 53.792969 116.578125 53.789062 116.496094 53.777344 116.421875 L 51.910156 117.03125 C 51.296875 117.230469 50.757812 117.59375 50.375 118.105469 C 48.773438 120.210938 45.351562 126.757812 49.132812 141.144531 C 52.273438 153.089844 58.9375 158.703125 61.765625 160.621094 Z M 77.363281 157.070312 C 77.402344 157.246094 77.433594 157.410156 77.445312 157.582031 L 78.113281 157.40625 C 79.855469 156.9375 80.878906 155.132812 80.375 153.402344 L 69.242188 114.863281 C 68.734375 113.117188 66.878906 112.128906 65.148438 112.699219 L 64.785156 112.816406 C 64.90625 113.023438 65.019531 113.238281 65.089844 113.472656 Z M 131.234375 161.746094 L 133.042969 162.226562 C 133.945312 162.464844 134.910156 162.308594 135.683594 161.78125 C 138.519531 159.859375 145.183594 154.246094 148.324219 142.300781 C 152.105469 127.914062 148.683594 121.367188 147.085938 119.261719 C 146.691406 118.75 146.160156 118.386719 145.546875 118.1875 L 143.675781 117.578125 C 143.664062 117.660156 143.664062 117.734375 143.640625 117.8125 L 131.367188 161.410156 C 131.332031 161.527344 131.285156 161.632812 131.234375 161.746094 Z M 117.082031 154.558594 L 128.214844 116.019531 C 128.71875 114.273438 130.574219 113.292969 132.300781 113.855469 L 132.667969 113.972656 C 132.542969 114.179688 132.4375 114.394531 132.371094 114.636719 L 120.09375 158.226562 C 120.046875 158.402344 120.019531 158.574219 120.007812 158.746094 L 119.335938 158.5625 C 117.597656 158.097656 116.578125 156.289062 117.082031 154.558594 " fill-opacity="1" fill-rule="nonzero"/></g></svg>