<svg width="105" height="30" viewBox="0 0 105 30" fill="none" xmlns="http://www.w3.org/2000/svg">
<path d="M19.3281 11.8516V17.125H4.73828V11.8516H19.3281ZM7.02344 0.5625V29H0.167969V0.5625H7.02344ZM23.9375 0.5625V29H17.1016V0.5625H23.9375ZM40.6953 6.53906L33.7617 29H26.3984L36.8477 0.5625H41.5156L40.6953 6.53906ZM46.4375 29L39.4844 6.53906L38.5859 0.5625H43.3125L53.8203 29H46.4375ZM46.1641 18.3945V23.6875H31.5742V18.3945H46.1641ZM70.5586 21.4414C70.5586 20.9987 70.4935 20.6016 70.3633 20.25C70.2331 19.8854 69.9922 19.5469 69.6406 19.2344C69.2891 18.9219 68.7812 18.6094 68.1172 18.2969C67.4661 17.9714 66.6068 17.6328 65.5391 17.2812C64.2891 16.8646 63.0846 16.3958 61.9258 15.875C60.7669 15.3411 59.7318 14.7227 58.8203 14.0195C57.9089 13.3034 57.1862 12.4701 56.6523 11.5195C56.1185 10.556 55.8516 9.4362 55.8516 8.16016C55.8516 6.9362 56.125 5.83594 56.6719 4.85938C57.2188 3.86979 57.9805 3.02995 58.957 2.33984C59.9466 1.63672 61.1055 1.10286 62.4336 0.738281C63.7617 0.360677 65.2135 0.171875 66.7891 0.171875C68.8724 0.171875 70.7083 0.536458 72.2969 1.26562C73.8984 1.98177 75.1484 3.00391 76.0469 4.33203C76.9583 5.64714 77.4141 7.20312 77.4141 9H70.5977C70.5977 8.28385 70.4479 7.65234 70.1484 7.10547C69.862 6.55859 69.4258 6.12891 68.8398 5.81641C68.2539 5.50391 67.5182 5.34766 66.6328 5.34766C65.7734 5.34766 65.0508 5.47786 64.4648 5.73828C63.8789 5.9987 63.4362 6.35026 63.1367 6.79297C62.8372 7.22266 62.6875 7.69792 62.6875 8.21875C62.6875 8.64844 62.8047 9.03906 63.0391 9.39062C63.2865 9.72917 63.6315 10.0482 64.0742 10.3477C64.5299 10.6471 65.0768 10.9336 65.7148 11.207C66.3659 11.4805 67.0951 11.7474 67.9023 12.0078C69.4128 12.4896 70.7539 13.0299 71.9258 13.6289C73.1107 14.2148 74.1068 14.8854 74.9141 15.6406C75.7344 16.3828 76.3529 17.2292 76.7695 18.1797C77.1992 19.1302 77.4141 20.2044 77.4141 21.4023C77.4141 22.6784 77.1667 23.8112 76.6719 24.8008C76.1771 25.7904 75.4674 26.6302 74.543 27.3203C73.6185 27.9974 72.5117 28.5117 71.2227 28.8633C69.9336 29.2148 68.4948 29.3906 66.9062 29.3906C65.4479 29.3906 64.0091 29.2083 62.5898 28.8438C61.1836 28.4661 59.9076 27.8932 58.7617 27.125C57.6159 26.3438 56.6979 25.3477 56.0078 24.1367C55.3307 22.9128 54.9922 21.4609 54.9922 19.7812H61.8672C61.8672 20.6146 61.9779 21.3177 62.1992 21.8906C62.4206 22.4635 62.7461 22.9258 63.1758 23.2773C63.6055 23.6159 64.1328 23.8633 64.7578 24.0195C65.3828 24.1628 66.099 24.2344 66.9062 24.2344C67.7786 24.2344 68.4818 24.1107 69.0156 23.8633C69.5495 23.6029 69.9401 23.2643 70.1875 22.8477C70.4349 22.418 70.5586 21.9492 70.5586 21.4414ZM100.109 11.8516V17.125H85.5195V11.8516H100.109ZM87.8047 0.5625V29H80.9492V0.5625H87.8047ZM104.719 0.5625V29H97.8828V0.5625H104.719Z" fill="white"/>
</svg>
