<svg width="108" height="44" viewBox="0 0 108 44" fill="none" xmlns="http://www.w3.org/2000/svg">
<path d="M27.5 10.2812V14.5H15.8281V10.2812H27.5ZM17.6562 1.25V24H12.1719V1.25H17.6562ZM31.1875 1.25V24H25.7188V1.25H31.1875ZM44.5938 6.03125L39.0469 24H33.1562L41.5156 1.25H45.25L44.5938 6.03125ZM49.1875 24L43.625 6.03125L42.9062 1.25H46.6875L55.0938 24H49.1875ZM48.9688 15.5156V19.75H37.2969V15.5156H48.9688ZM68.4844 17.9531C68.4844 17.599 68.4323 17.2812 68.3281 17C68.224 16.7083 68.0312 16.4375 67.75 16.1875C67.4688 15.9375 67.0625 15.6875 66.5312 15.4375C66.0104 15.1771 65.3229 14.9062 64.4688 14.625C63.4688 14.2917 62.5052 13.9167 61.5781 13.5C60.651 13.0729 59.8229 12.5781 59.0938 12.0156C58.3646 11.4427 57.7865 10.776 57.3594 10.0156C56.9323 9.24479 56.7188 8.34896 56.7188 7.32812C56.7188 6.34896 56.9375 5.46875 57.375 4.6875C57.8125 3.89583 58.4219 3.22396 59.2031 2.67188C59.9948 2.10938 60.9219 1.68229 61.9844 1.39062C63.0469 1.08854 64.2083 0.9375 65.4688 0.9375C67.1354 0.9375 68.6042 1.22917 69.875 1.8125C71.1562 2.38542 72.1562 3.20312 72.875 4.26562C73.6042 5.31771 73.9688 6.5625 73.9688 8H68.5156C68.5156 7.42708 68.3958 6.92188 68.1562 6.48438C67.9271 6.04688 67.5781 5.70312 67.1094 5.45312C66.6406 5.20312 66.0521 5.07812 65.3438 5.07812C64.6562 5.07812 64.0781 5.18229 63.6094 5.39062C63.1406 5.59896 62.7865 5.88021 62.5469 6.23438C62.3073 6.57812 62.1875 6.95833 62.1875 7.375C62.1875 7.71875 62.2812 8.03125 62.4688 8.3125C62.6667 8.58333 62.9427 8.83854 63.2969 9.07812C63.6615 9.31771 64.099 9.54688 64.6094 9.76562C65.1302 9.98438 65.7135 10.1979 66.3594 10.4062C67.5677 10.7917 68.6406 11.224 69.5781 11.7031C70.526 12.1719 71.3229 12.7083 71.9688 13.3125C72.625 13.9062 73.1198 14.5833 73.4531 15.3438C73.7969 16.1042 73.9688 16.9635 73.9688 17.9219C73.9688 18.9427 73.7708 19.849 73.375 20.6406C72.9792 21.4323 72.4115 22.1042 71.6719 22.6562C70.9323 23.1979 70.0469 23.6094 69.0156 23.8906C67.9844 24.1719 66.8333 24.3125 65.5625 24.3125C64.3958 24.3125 63.2448 24.1667 62.1094 23.875C60.9844 23.5729 59.9635 23.1146 59.0469 22.5C58.1302 21.875 57.3958 21.0781 56.8438 20.1094C56.3021 19.1302 56.0312 17.9688 56.0312 16.625H61.5312C61.5312 17.2917 61.6198 17.8542 61.7969 18.3125C61.974 18.7708 62.2344 19.1406 62.5781 19.4219C62.9219 19.6927 63.3438 19.8906 63.8438 20.0156C64.3438 20.1302 64.9167 20.1875 65.5625 20.1875C66.2604 20.1875 66.8229 20.0885 67.25 19.8906C67.6771 19.6823 67.9896 19.4115 68.1875 19.0781C68.3854 18.7344 68.4844 18.3594 68.4844 17.9531ZM92.125 10.2812V14.5H80.4531V10.2812H92.125ZM82.2812 1.25V24H76.7969V1.25H82.2812ZM95.8125 1.25V24H90.3438V1.25H95.8125ZM7.64844 39.1484H10.3828C10.3464 39.9401 10.1328 40.638 9.74219 41.2422C9.35156 41.8464 8.8099 42.3177 8.11719 42.6562C7.42969 42.9896 6.61719 43.1562 5.67969 43.1562C4.91927 43.1562 4.23958 43.0286 3.64062 42.7734C3.04688 42.5182 2.54167 42.151 2.125 41.6719C1.71354 41.1927 1.39844 40.612 1.17969 39.9297C0.966146 39.2474 0.859375 38.4792 0.859375 37.625V37.0078C0.859375 36.1536 0.971354 35.3854 1.19531 34.7031C1.42448 34.0156 1.7474 33.4323 2.16406 32.9531C2.58594 32.4688 3.09115 32.099 3.67969 31.8438C4.26823 31.5885 4.92188 31.4609 5.64062 31.4609C6.63021 31.4609 7.46615 31.638 8.14844 31.9922C8.83073 32.3464 9.35938 32.8333 9.73438 33.4531C10.1094 34.0677 10.3307 34.7682 10.3984 35.5547H7.66406C7.65365 35.1276 7.58073 34.7708 7.44531 34.4844C7.3099 34.1927 7.09635 33.974 6.80469 33.8281C6.51302 33.6823 6.125 33.6094 5.64062 33.6094C5.30208 33.6094 5.00781 33.6719 4.75781 33.7969C4.50781 33.9219 4.29948 34.1198 4.13281 34.3906C3.96615 34.6615 3.84115 35.013 3.75781 35.4453C3.67969 35.8724 3.64062 36.388 3.64062 36.9922V37.625C3.64062 38.2292 3.67708 38.7448 3.75 39.1719C3.82292 39.599 3.9401 39.9479 4.10156 40.2188C4.26302 40.4896 4.47135 40.6901 4.72656 40.8203C4.98698 40.9453 5.30469 41.0078 5.67969 41.0078C6.09635 41.0078 6.44792 40.9427 6.73438 40.8125C7.02083 40.6771 7.24219 40.474 7.39844 40.2031C7.55469 39.9271 7.63802 39.5755 7.64844 39.1484ZM21.3047 37.0859V37.5469C21.3047 38.4167 21.1823 39.1979 20.9375 39.8906C20.6979 40.5781 20.3568 41.1667 19.9141 41.6562C19.4714 42.1406 18.9479 42.513 18.3438 42.7734C17.7396 43.0286 17.0729 43.1562 16.3438 43.1562C15.6094 43.1562 14.9375 43.0286 14.3281 42.7734C13.724 42.513 13.1979 42.1406 12.75 41.6562C12.3073 41.1667 11.9635 40.5781 11.7188 39.8906C11.4792 39.1979 11.3594 38.4167 11.3594 37.5469V37.0859C11.3594 36.2161 11.4792 35.4349 11.7188 34.7422C11.9635 34.0495 12.3047 33.4609 12.7422 32.9766C13.1849 32.487 13.7083 32.1146 14.3125 31.8594C14.9219 31.599 15.5938 31.4688 16.3281 31.4688C17.0573 31.4688 17.724 31.599 18.3281 31.8594C18.9375 32.1146 19.4635 32.487 19.9062 32.9766C20.349 33.4609 20.6927 34.0495 20.9375 34.7422C21.1823 35.4349 21.3047 36.2161 21.3047 37.0859ZM18.5234 37.5469V37.0703C18.5234 36.5078 18.474 36.013 18.375 35.5859C18.2812 35.1536 18.1406 34.7917 17.9531 34.5C17.7656 34.2083 17.5339 33.9896 17.2578 33.8438C16.987 33.6927 16.6771 33.6172 16.3281 33.6172C15.9635 33.6172 15.6458 33.6927 15.375 33.8438C15.1042 33.9896 14.8776 34.2083 14.6953 34.5C14.513 34.7917 14.375 35.1536 14.2812 35.5859C14.1927 36.013 14.1484 36.5078 14.1484 37.0703V37.5469C14.1484 38.1042 14.1927 38.599 14.2812 39.0312C14.375 39.4583 14.513 39.8203 14.6953 40.1172C14.8828 40.4141 15.112 40.638 15.3828 40.7891C15.6589 40.9401 15.9792 41.0156 16.3438 41.0156C16.6927 41.0156 17.0026 40.9401 17.2734 40.7891C17.5443 40.638 17.7708 40.4141 17.9531 40.1172C18.1406 39.8203 18.2812 39.4583 18.375 39.0312C18.474 38.599 18.5234 38.1042 18.5234 37.5469ZM26.4219 43H23.8984L23.9141 40.8906H26.4219C26.9427 40.8906 27.3828 40.7656 27.7422 40.5156C28.1068 40.2656 28.3828 39.8932 28.5703 39.3984C28.763 38.8984 28.8594 38.2839 28.8594 37.5547V37.0625C28.8594 36.5156 28.8047 36.0365 28.6953 35.625C28.5911 35.2083 28.4349 34.862 28.2266 34.5859C28.0182 34.3047 27.7578 34.0938 27.4453 33.9531C27.138 33.8125 26.7839 33.7422 26.3828 33.7422H23.8516V31.625H26.3828C27.1536 31.625 27.8594 31.7578 28.5 32.0234C29.1458 32.2839 29.7031 32.6589 30.1719 33.1484C30.6458 33.6328 31.0104 34.2083 31.2656 34.875C31.526 35.5365 31.6562 36.2708 31.6562 37.0781V37.5547C31.6562 38.3568 31.526 39.0911 31.2656 39.7578C31.0104 40.4245 30.6484 41 30.1797 41.4844C29.7109 41.9688 29.1562 42.3438 28.5156 42.6094C27.8802 42.8698 27.1823 43 26.4219 43ZM25.4688 31.625V43H22.7266V31.625H25.4688ZM40.9141 40.8906V43H34.8516V40.8906H40.9141ZM35.8281 31.625V43H33.0859V31.625H35.8281ZM40.1328 36.1406V38.1797H34.8516V36.1406H40.1328ZM40.9375 31.625V33.7422H34.8516V31.625H40.9375ZM51.8828 39.9766C51.8828 39.7995 51.8568 39.6406 51.8047 39.5C51.7526 39.3542 51.6562 39.2188 51.5156 39.0938C51.375 38.9688 51.1719 38.8438 50.9062 38.7188C50.6458 38.5885 50.3021 38.4531 49.875 38.3125C49.375 38.1458 48.8932 37.9583 48.4297 37.75C47.9661 37.5365 47.5521 37.2891 47.1875 37.0078C46.8229 36.7214 46.5339 36.388 46.3203 36.0078C46.1068 35.6224 46 35.1745 46 34.6641C46 34.1745 46.1094 33.7344 46.3281 33.3438C46.5469 32.9479 46.8516 32.612 47.2422 32.3359C47.638 32.0547 48.1016 31.8411 48.6328 31.6953C49.1641 31.5443 49.7448 31.4688 50.375 31.4688C51.2083 31.4688 51.9427 31.6146 52.5781 31.9062C53.2188 32.1927 53.7188 32.6016 54.0781 33.1328C54.4427 33.6589 54.625 34.2812 54.625 35H51.8984C51.8984 34.7135 51.8385 34.4609 51.7188 34.2422C51.6042 34.0234 51.4297 33.8516 51.1953 33.7266C50.9609 33.6016 50.6667 33.5391 50.3125 33.5391C49.9688 33.5391 49.6797 33.5911 49.4453 33.6953C49.2109 33.7995 49.0339 33.9401 48.9141 34.1172C48.7943 34.2891 48.7344 34.4792 48.7344 34.6875C48.7344 34.8594 48.7812 35.0156 48.875 35.1562C48.974 35.2917 49.112 35.4193 49.2891 35.5391C49.4714 35.6589 49.6901 35.7734 49.9453 35.8828C50.2057 35.9922 50.4974 36.099 50.8203 36.2031C51.4245 36.3958 51.9609 36.612 52.4297 36.8516C52.9036 37.0859 53.3021 37.3542 53.625 37.6562C53.9531 37.9531 54.2005 38.2917 54.3672 38.6719C54.5391 39.0521 54.625 39.4818 54.625 39.9609C54.625 40.4714 54.526 40.9245 54.3281 41.3203C54.1302 41.7161 53.8464 42.0521 53.4766 42.3281C53.1068 42.599 52.6641 42.8047 52.1484 42.9453C51.6328 43.0859 51.0573 43.1562 50.4219 43.1562C49.8385 43.1562 49.263 43.0833 48.6953 42.9375C48.1328 42.7865 47.6224 42.5573 47.1641 42.25C46.7057 41.9375 46.3385 41.5391 46.0625 41.0547C45.7917 40.5651 45.6562 39.9844 45.6562 39.3125H48.4062C48.4062 39.6458 48.4505 39.9271 48.5391 40.1562C48.6276 40.3854 48.7578 40.5703 48.9297 40.7109C49.1016 40.8464 49.3125 40.9453 49.5625 41.0078C49.8125 41.0651 50.099 41.0938 50.4219 41.0938C50.7708 41.0938 51.0521 41.0443 51.2656 40.9453C51.4792 40.8411 51.6354 40.7057 51.7344 40.5391C51.8333 40.3672 51.8828 40.1797 51.8828 39.9766ZM62.5078 39.1484H65.2422C65.2057 39.9401 64.9922 40.638 64.6016 41.2422C64.2109 41.8464 63.6693 42.3177 62.9766 42.6562C62.2891 42.9896 61.4766 43.1562 60.5391 43.1562C59.7786 43.1562 59.099 43.0286 58.5 42.7734C57.9062 42.5182 57.401 42.151 56.9844 41.6719C56.5729 41.1927 56.2578 40.612 56.0391 39.9297C55.8255 39.2474 55.7188 38.4792 55.7188 37.625V37.0078C55.7188 36.1536 55.8307 35.3854 56.0547 34.7031C56.2839 34.0156 56.6068 33.4323 57.0234 32.9531C57.4453 32.4688 57.9505 32.099 58.5391 31.8438C59.1276 31.5885 59.7812 31.4609 60.5 31.4609C61.4896 31.4609 62.3255 31.638 63.0078 31.9922C63.6901 32.3464 64.2188 32.8333 64.5938 33.4531C64.9688 34.0677 65.1901 34.7682 65.2578 35.5547H62.5234C62.513 35.1276 62.4401 34.7708 62.3047 34.4844C62.1693 34.1927 61.9557 33.974 61.6641 33.8281C61.3724 33.6823 60.9844 33.6094 60.5 33.6094C60.1615 33.6094 59.8672 33.6719 59.6172 33.7969C59.3672 33.9219 59.1589 34.1198 58.9922 34.3906C58.8255 34.6615 58.7005 35.013 58.6172 35.4453C58.5391 35.8724 58.5 36.388 58.5 36.9922V37.625C58.5 38.2292 58.5365 38.7448 58.6094 39.1719C58.6823 39.599 58.7995 39.9479 58.9609 40.2188C59.1224 40.4896 59.3307 40.6901 59.5859 40.8203C59.8464 40.9453 60.1641 41.0078 60.5391 41.0078C60.9557 41.0078 61.3073 40.9427 61.5938 40.8125C61.8802 40.6771 62.1016 40.474 62.2578 40.2031C62.4141 39.9271 62.4974 39.5755 62.5078 39.1484ZM74.2031 36.1406V38.25H68.3672V36.1406H74.2031ZM69.2812 31.625V43H66.5391V31.625H69.2812ZM76.0469 31.625V43H73.3125V31.625H76.0469ZM87.4141 37.0859V37.5469C87.4141 38.4167 87.2917 39.1979 87.0469 39.8906C86.8073 40.5781 86.4661 41.1667 86.0234 41.6562C85.5807 42.1406 85.0573 42.513 84.4531 42.7734C83.849 43.0286 83.1823 43.1562 82.4531 43.1562C81.7188 43.1562 81.0469 43.0286 80.4375 42.7734C79.8333 42.513 79.3073 42.1406 78.8594 41.6562C78.4167 41.1667 78.0729 40.5781 77.8281 39.8906C77.5885 39.1979 77.4688 38.4167 77.4688 37.5469V37.0859C77.4688 36.2161 77.5885 35.4349 77.8281 34.7422C78.0729 34.0495 78.4141 33.4609 78.8516 32.9766C79.2943 32.487 79.8177 32.1146 80.4219 31.8594C81.0312 31.599 81.7031 31.4688 82.4375 31.4688C83.1667 31.4688 83.8333 31.599 84.4375 31.8594C85.0469 32.1146 85.5729 32.487 86.0156 32.9766C86.4583 33.4609 86.8021 34.0495 87.0469 34.7422C87.2917 35.4349 87.4141 36.2161 87.4141 37.0859ZM84.6328 37.5469V37.0703C84.6328 36.5078 84.5833 36.013 84.4844 35.5859C84.3906 35.1536 84.25 34.7917 84.0625 34.5C83.875 34.2083 83.6432 33.9896 83.3672 33.8438C83.0964 33.6927 82.7865 33.6172 82.4375 33.6172C82.0729 33.6172 81.7552 33.6927 81.4844 33.8438C81.2135 33.9896 80.987 34.2083 80.8047 34.5C80.6224 34.7917 80.4844 35.1536 80.3906 35.5859C80.3021 36.013 80.2578 36.5078 80.2578 37.0703V37.5469C80.2578 38.1042 80.3021 38.599 80.3906 39.0312C80.4844 39.4583 80.6224 39.8203 80.8047 40.1172C80.9922 40.4141 81.2214 40.638 81.4922 40.7891C81.7682 40.9401 82.0885 41.0156 82.4531 41.0156C82.8021 41.0156 83.112 40.9401 83.3828 40.7891C83.6536 40.638 83.8802 40.4141 84.0625 40.1172C84.25 39.8203 84.3906 39.4583 84.4844 39.0312C84.5833 38.599 84.6328 38.1042 84.6328 37.5469ZM98.4609 37.0859V37.5469C98.4609 38.4167 98.3385 39.1979 98.0938 39.8906C97.8542 40.5781 97.513 41.1667 97.0703 41.6562C96.6276 42.1406 96.1042 42.513 95.5 42.7734C94.8958 43.0286 94.2292 43.1562 93.5 43.1562C92.7656 43.1562 92.0938 43.0286 91.4844 42.7734C90.8802 42.513 90.3542 42.1406 89.9062 41.6562C89.4635 41.1667 89.1198 40.5781 88.875 39.8906C88.6354 39.1979 88.5156 38.4167 88.5156 37.5469V37.0859C88.5156 36.2161 88.6354 35.4349 88.875 34.7422C89.1198 34.0495 89.4609 33.4609 89.8984 32.9766C90.3411 32.487 90.8646 32.1146 91.4688 31.8594C92.0781 31.599 92.75 31.4688 93.4844 31.4688C94.2135 31.4688 94.8802 31.599 95.4844 31.8594C96.0938 32.1146 96.6198 32.487 97.0625 32.9766C97.5052 33.4609 97.849 34.0495 98.0938 34.7422C98.3385 35.4349 98.4609 36.2161 98.4609 37.0859ZM95.6797 37.5469V37.0703C95.6797 36.5078 95.6302 36.013 95.5312 35.5859C95.4375 35.1536 95.2969 34.7917 95.1094 34.5C94.9219 34.2083 94.6901 33.9896 94.4141 33.8438C94.1432 33.6927 93.8333 33.6172 93.4844 33.6172C93.1198 33.6172 92.8021 33.6927 92.5312 33.8438C92.2604 33.9896 92.0339 34.2083 91.8516 34.5C91.6693 34.7917 91.5312 35.1536 91.4375 35.5859C91.349 36.013 91.3047 36.5078 91.3047 37.0703V37.5469C91.3047 38.1042 91.349 38.599 91.4375 39.0312C91.5312 39.4583 91.6693 39.8203 91.8516 40.1172C92.0391 40.4141 92.2682 40.638 92.5391 40.7891C92.8151 40.9401 93.1354 41.0156 93.5 41.0156C93.849 41.0156 94.1589 40.9401 94.4297 40.7891C94.7005 40.638 94.9271 40.4141 95.1094 40.1172C95.2969 39.8203 95.4375 39.4583 95.5312 39.0312C95.6302 38.599 95.6797 38.1042 95.6797 37.5469ZM107.398 40.8906V43H101.648V40.8906H107.398ZM102.625 31.625V43H99.8828V31.625H102.625Z" fill="white"/>
</svg>
