<svg xmlns="http://www.w3.org/2000/svg" xmlns:xlink="http://www.w3.org/1999/xlink" width="1920" zoomAndPan="magnify" viewBox="0 0 1440 809.999993" height="1080" preserveAspectRatio="xMidYMid meet" version="1.0"><defs><clipPath id="ff2148d81e"><path d="M 695.40625 379.503906 L 746.980469 379.503906 L 746.980469 429.714844 L 695.40625 429.714844 Z M 695.40625 379.503906 " clip-rule="nonzero"/></clipPath><clipPath id="c6f2394403"><path d="M 694.070312 380.597656 L 749.679688 380.597656 L 749.679688 429.714844 L 694.070312 429.714844 Z M 694.070312 380.597656 " clip-rule="nonzero"/></clipPath></defs><g clip-path="url(#ff2148d81e)"><path fill="#ffb86c" d="M 703.511719 404.164062 L 698.34375 404.164062 C 698.136719 404.164062 697.96875 403.996094 697.96875 403.789062 L 697.96875 403.140625 C 697.96875 402.9375 698.136719 402.769531 698.34375 402.769531 L 703.511719 402.769531 C 703.71875 402.769531 703.882812 402.9375 703.882812 403.140625 L 703.882812 403.789062 C 703.882812 403.996094 703.71875 404.164062 703.511719 404.164062 Z M 695.441406 399.75 L 695.441406 397.652344 L 696.574219 397.652344 L 696.574219 399.75 C 696.574219 399.824219 696.515625 399.882812 696.441406 399.882812 L 695.578125 399.882812 C 695.503906 399.882812 695.441406 399.824219 695.441406 399.75 Z M 704.824219 385.316406 L 704.816406 385.316406 L 704.816406 384.203125 C 704.816406 381.609375 702.71875 379.503906 700.128906 379.503906 C 697.539062 379.503906 695.4375 381.609375 695.4375 384.203125 L 695.4375 386.378906 L 695.699219 386.378906 L 696.769531 390.1875 C 696.8125 390.335938 696.964844 390.421875 697.113281 390.382812 L 697.773438 390.195312 C 697.921875 390.152344 698.011719 389.996094 697.96875 389.847656 L 696.664062 385.199219 C 696.621094 385.050781 696.464844 384.964844 696.316406 385.007812 L 695.914062 385.121094 L 695.914062 384.410156 C 695.914062 382.054688 697.800781 380.550781 700.128906 380.550781 C 702.457031 380.550781 704.34375 382.054688 704.34375 384.410156 L 704.34375 385.179688 L 704.164062 385.132812 C 704.015625 385.089844 703.859375 385.175781 703.820312 385.324219 L 702.515625 389.972656 C 702.472656 390.121094 702.558594 390.277344 702.707031 390.316406 L 703.367188 390.503906 C 703.515625 390.546875 703.671875 390.460938 703.714844 390.3125 L 705.019531 385.664062 C 705.058594 385.515625 704.972656 385.359375 704.824219 385.316406 Z M 717.289062 386.820312 L 717.457031 386.984375 L 718.75 385.691406 L 718.582031 385.523438 Z M 718.734375 385.09375 L 718.566406 384.925781 L 717.277344 386.21875 L 717.441406 386.390625 Z M 745.429688 429.714844 L 697.839844 429.714844 C 697.839844 429.714844 701.292969 421.992188 705.265625 417.722656 C 709.238281 413.453125 706.632812 410.746094 709.40625 404.347656 C 716.84375 387.1875 728.496094 385 737.941406 387.453125 C 753.960938 391.617188 734.222656 402.894531 742.316406 405.039062 C 750.40625 407.183594 745.429688 429.714844 745.429688 429.714844 " fill-opacity="1" fill-rule="nonzero"/></g><path fill="#ff5555" d="M 702.894531 418.988281 L 697.320312 418.988281 C 697.21875 418.988281 697.136719 419.070312 697.136719 419.175781 L 697.136719 419.597656 L 697.546875 419.597656 L 697.921875 423.71875 L 702.292969 423.71875 L 702.667969 419.597656 L 703.082031 419.597656 L 703.082031 419.175781 C 703.082031 419.070312 702.996094 418.988281 702.894531 418.988281 Z M 722.332031 417.605469 C 722.332031 416.894531 721.65625 416.316406 720.816406 416.316406 C 719.980469 416.316406 719.300781 416.894531 719.300781 417.605469 C 719.300781 418.316406 719.980469 418.894531 720.816406 418.894531 C 721.65625 418.894531 722.332031 418.316406 722.332031 417.605469 Z M 731.40625 411.949219 L 732.085938 413.355469 L 732.085938 411.949219 Z M 734.339844 417.160156 L 734.300781 417.8125 L 728.929688 419.59375 L 728.761719 419.042969 L 728.453125 423.296875 L 727.570312 423.324219 L 727.636719 422.699219 C 727.660156 422.59375 727.59375 422.492188 727.5 422.492188 L 714.652344 422.492188 L 713.917969 416.707031 L 710.988281 419.949219 L 706.554688 417.378906 L 706.503906 416.511719 C 706.488281 416.257812 706.675781 416.03125 706.929688 416.003906 L 707.246094 415.96875 L 712.878906 408.539062 L 721.304688 405.320312 L 729.550781 408.089844 L 731.273438 411.671875 L 732.09375 411.671875 C 732.164062 411.671875 732.226562 411.699219 732.277344 411.75 C 732.328125 411.800781 732.355469 411.863281 732.355469 411.9375 L 732.355469 413.574219 C 732.355469 413.644531 732.328125 413.707031 732.277344 413.757812 L 733.621094 416.550781 L 734 416.671875 C 734.210938 416.738281 734.351562 416.941406 734.339844 417.160156 Z M 738.695312 390.585938 L 739.683594 390.585938 C 739.761719 390.585938 739.828125 390.519531 739.828125 390.441406 L 739.828125 390.265625 L 738.550781 390.265625 L 738.550781 390.441406 C 738.550781 390.519531 738.613281 390.585938 738.695312 390.585938 Z M 724 387.070312 C 724.25 387.070312 724.453125 386.867188 724.453125 386.617188 C 724.453125 386.367188 724.25 386.164062 724 386.164062 C 723.75 386.164062 723.550781 386.367188 723.550781 386.617188 C 723.550781 386.867188 723.75 387.070312 724 387.070312 Z M 723.503906 383.316406 L 712.523438 383.316406 L 712.523438 389.914062 L 723.503906 389.914062 Z M 736.234375 412.855469 C 736.195312 412.855469 736.164062 412.871094 736.136719 412.898438 C 736.109375 412.925781 736.097656 412.957031 736.097656 412.992188 L 736.097656 413.5625 L 735.824219 413.5625 L 735.824219 411.675781 L 735.136719 411.675781 C 735.101562 411.675781 735.066406 411.6875 735.042969 411.714844 C 735.015625 411.742188 735.003906 411.773438 735.003906 411.8125 C 735.003906 411.851562 735.015625 411.882812 735.042969 411.910156 C 735.066406 411.9375 735.101562 411.949219 735.136719 411.949219 L 735.550781 411.949219 L 735.550781 413.5625 L 735.132812 413.5625 C 735.09375 413.5625 735.0625 413.578125 735.035156 413.601562 C 735.007812 413.628906 734.996094 413.660156 734.996094 413.695312 C 734.996094 413.734375 735.007812 413.769531 735.035156 413.796875 C 735.0625 413.824219 735.09375 413.835938 735.132812 413.835938 L 736.234375 413.835938 C 736.269531 413.835938 736.304688 413.824219 736.328125 413.796875 C 736.355469 413.769531 736.371094 413.738281 736.371094 413.699219 L 736.371094 412.992188 C 736.371094 412.953125 736.355469 412.921875 736.328125 412.894531 C 736.304688 412.871094 736.269531 412.855469 736.234375 412.855469 Z M 734.09375 411.949219 L 733.261719 411.949219 L 733.261719 413.5625 L 734.09375 413.5625 Z M 734.285156 411.75 C 734.335938 411.800781 734.363281 411.863281 734.363281 411.9375 L 734.363281 413.574219 C 734.363281 413.644531 734.335938 413.707031 734.285156 413.757812 C 734.234375 413.8125 734.171875 413.835938 734.101562 413.835938 L 733.253906 413.835938 C 733.179688 413.835938 733.117188 413.8125 733.066406 413.757812 C 733.015625 413.707031 732.988281 413.644531 732.988281 413.574219 L 732.988281 411.9375 C 732.988281 411.863281 733.015625 411.800781 733.066406 411.75 C 733.117188 411.699219 733.179688 411.671875 733.253906 411.671875 L 734.101562 411.671875 C 734.175781 411.671875 734.234375 411.699219 734.285156 411.75 Z M 744.507812 406.402344 L 744.507812 406.898438 L 744.238281 406.898438 L 744.238281 406.121094 C 744.148438 406.039062 744.058594 405.957031 743.964844 405.878906 L 743.964844 406.898438 L 743.542969 406.898438 C 743.507812 406.898438 743.476562 406.914062 743.449219 406.941406 C 743.421875 406.964844 743.410156 406.996094 743.410156 407.035156 C 743.410156 407.070312 743.421875 407.105469 743.449219 407.132812 C 743.476562 407.160156 743.507812 407.171875 743.542969 407.171875 L 744.644531 407.171875 C 744.683594 407.171875 744.714844 407.160156 744.742188 407.132812 C 744.769531 407.105469 744.78125 407.074219 744.78125 407.035156 L 744.78125 406.730469 C 744.695312 406.617188 744.605469 406.507812 744.507812 406.402344 Z M 742.507812 405.285156 L 741.675781 405.285156 L 741.675781 406.898438 L 742.507812 406.898438 Z M 742.761719 405.183594 C 742.769531 405.210938 742.777344 405.242188 742.777344 405.273438 L 742.777344 406.910156 C 742.777344 406.984375 742.75 407.042969 742.699219 407.097656 C 742.648438 407.148438 742.585938 407.171875 742.511719 407.171875 L 741.664062 407.171875 C 741.59375 407.171875 741.53125 407.148438 741.480469 407.097656 C 741.429688 407.042969 741.402344 406.984375 741.402344 406.910156 L 741.402344 405.273438 C 741.402344 405.203125 741.429688 405.140625 741.480469 405.085938 C 741.53125 405.035156 741.59375 405.007812 741.664062 405.007812 L 742.210938 405.007812 C 742.246094 405.019531 742.277344 405.027344 742.316406 405.039062 C 742.46875 405.078125 742.617188 405.128906 742.761719 405.183594 Z M 740.496094 405.285156 L 739.667969 405.285156 L 739.667969 406.898438 L 740.496094 406.898438 Z M 740.691406 405.085938 C 740.742188 405.140625 740.769531 405.203125 740.769531 405.273438 L 740.769531 406.910156 C 740.769531 406.984375 740.742188 407.042969 740.691406 407.097656 C 740.640625 407.148438 740.578125 407.171875 740.503906 407.171875 L 739.65625 407.171875 C 739.582031 407.171875 739.519531 407.148438 739.46875 407.097656 C 739.417969 407.042969 739.394531 406.984375 739.394531 406.910156 L 739.394531 405.273438 C 739.394531 405.203125 739.417969 405.140625 739.472656 405.085938 C 739.523438 405.035156 739.585938 405.007812 739.65625 405.007812 L 740.507812 405.007812 C 740.578125 405.007812 740.640625 405.035156 740.691406 405.085938 Z M 738.617188 406.195312 C 738.582031 406.195312 738.546875 406.207031 738.523438 406.234375 C 738.496094 406.261719 738.480469 406.292969 738.480469 406.328125 L 738.480469 406.898438 L 738.210938 406.898438 L 738.210938 405.011719 L 737.523438 405.011719 C 737.484375 405.011719 737.453125 405.027344 737.425781 405.050781 C 737.402344 405.078125 737.386719 405.109375 737.386719 405.148438 C 737.386719 405.1875 737.402344 405.21875 737.425781 405.246094 C 737.453125 405.273438 737.484375 405.285156 737.523438 405.285156 L 737.9375 405.285156 L 737.9375 406.898438 L 737.515625 406.898438 C 737.480469 406.898438 737.449219 406.914062 737.421875 406.941406 C 737.394531 406.964844 737.382812 406.996094 737.382812 407.035156 C 737.382812 407.070312 737.394531 407.105469 737.421875 407.132812 C 737.449219 407.160156 737.480469 407.171875 737.515625 407.171875 L 738.617188 407.171875 C 738.65625 407.171875 738.6875 407.160156 738.714844 407.132812 C 738.742188 407.105469 738.753906 407.074219 738.753906 407.035156 L 738.753906 406.328125 C 738.753906 406.292969 738.742188 406.261719 738.714844 406.234375 C 738.6875 406.207031 738.65625 406.195312 738.617188 406.195312 Z M 736.480469 405.285156 L 735.648438 405.285156 L 735.648438 406.898438 L 736.480469 406.898438 Z M 736.671875 405.085938 C 736.722656 405.140625 736.75 405.203125 736.75 405.273438 L 736.75 406.910156 C 736.75 406.984375 736.722656 407.042969 736.671875 407.097656 C 736.621094 407.148438 736.558594 407.171875 736.484375 407.171875 L 735.636719 407.171875 C 735.566406 407.171875 735.503906 407.148438 735.453125 407.097656 C 735.402344 407.042969 735.375 406.984375 735.375 406.910156 L 735.375 405.273438 C 735.375 405.203125 735.402344 405.140625 735.453125 405.085938 C 735.503906 405.035156 735.566406 405.007812 735.636719 405.007812 L 736.488281 405.007812 C 736.558594 405.007812 736.621094 405.035156 736.671875 405.085938 Z M 733.242188 399.039062 L 734.074219 399.039062 L 734.074219 397.425781 L 733.242188 397.425781 Z M 733.234375 397.148438 L 734.082031 397.148438 C 734.15625 397.148438 734.214844 397.175781 734.265625 397.226562 C 734.316406 397.277344 734.34375 397.339844 734.34375 397.414062 L 734.34375 399.050781 C 734.34375 399.121094 734.316406 399.183594 734.265625 399.238281 C 734.214844 399.289062 734.152344 399.3125 734.082031 399.3125 L 733.234375 399.3125 C 733.160156 399.3125 733.097656 399.289062 733.046875 399.238281 C 732.996094 399.183594 732.96875 399.121094 732.96875 399.050781 L 732.96875 397.414062 C 732.96875 397.339844 732.996094 397.277344 733.046875 397.226562 C 733.097656 397.175781 733.160156 397.148438 733.234375 397.148438 Z M 731.09375 399.039062 C 731.054688 399.039062 731.023438 399.054688 730.996094 399.078125 C 730.96875 399.105469 730.957031 399.136719 730.957031 399.171875 C 730.957031 399.210938 730.96875 399.242188 730.996094 399.273438 C 731.023438 399.300781 731.054688 399.3125 731.09375 399.3125 L 732.195312 399.3125 C 732.234375 399.3125 732.265625 399.300781 732.292969 399.273438 C 732.316406 399.246094 732.332031 399.214844 732.332031 399.175781 L 732.332031 398.46875 C 732.332031 398.433594 732.316406 398.398438 732.292969 398.371094 C 732.265625 398.347656 732.234375 398.332031 732.195312 398.332031 C 732.15625 398.332031 732.125 398.347656 732.097656 398.375 C 732.070312 398.402344 732.058594 398.433594 732.058594 398.46875 L 732.058594 399.039062 L 731.785156 399.039062 L 731.785156 397.152344 L 731.101562 397.152344 C 731.0625 397.152344 731.03125 397.164062 731.003906 397.191406 C 730.976562 397.21875 730.964844 397.25 730.964844 397.289062 C 730.964844 397.328125 730.976562 397.359375 731.003906 397.386719 C 731.03125 397.414062 731.0625 397.425781 731.101562 397.425781 L 731.511719 397.425781 L 731.511719 399.039062 Z M 729.222656 399.039062 L 730.054688 399.039062 L 730.054688 397.425781 L 729.222656 397.425781 Z M 729.214844 397.148438 L 730.066406 397.148438 C 730.136719 397.148438 730.195312 397.175781 730.25 397.226562 C 730.300781 397.277344 730.324219 397.339844 730.324219 397.414062 L 730.324219 399.050781 C 730.324219 399.121094 730.300781 399.183594 730.25 399.238281 C 730.195312 399.289062 730.136719 399.3125 730.0625 399.3125 L 729.214844 399.3125 C 729.140625 399.3125 729.078125 399.289062 729.027344 399.238281 C 728.976562 399.183594 728.953125 399.121094 728.953125 399.050781 L 728.953125 397.414062 C 728.953125 397.339844 728.976562 397.277344 729.03125 397.226562 C 729.082031 397.175781 729.144531 397.148438 729.214844 397.148438 Z M 727.765625 397.152344 L 727.082031 397.152344 C 727.042969 397.152344 727.011719 397.164062 726.984375 397.191406 C 726.960938 397.21875 726.945312 397.25 726.945312 397.289062 C 726.945312 397.328125 726.960938 397.359375 726.984375 397.386719 C 727.011719 397.414062 727.042969 397.425781 727.082031 397.425781 L 727.496094 397.425781 L 727.496094 399.039062 L 727.074219 399.039062 C 727.039062 399.039062 727.003906 399.054688 726.980469 399.078125 C 726.953125 399.105469 726.9375 399.136719 726.9375 399.171875 C 726.9375 399.210938 726.953125 399.242188 726.980469 399.273438 C 727.003906 399.300781 727.039062 399.3125 727.074219 399.3125 L 728.175781 399.3125 C 728.214844 399.3125 728.246094 399.300781 728.273438 399.273438 C 728.300781 399.246094 728.3125 399.214844 728.3125 399.175781 L 728.3125 398.46875 C 728.3125 398.433594 728.300781 398.398438 728.273438 398.371094 C 728.246094 398.347656 728.214844 398.332031 728.175781 398.332031 C 728.140625 398.332031 728.105469 398.347656 728.082031 398.375 C 728.054688 398.402344 728.039062 398.433594 728.039062 398.46875 L 728.039062 399.039062 L 727.765625 399.039062 Z M 725.207031 399.039062 L 726.039062 399.039062 L 726.039062 397.425781 L 725.207031 397.425781 Z M 725.195312 397.148438 L 726.046875 397.148438 C 726.117188 397.148438 726.179688 397.175781 726.230469 397.226562 C 726.28125 397.277344 726.308594 397.339844 726.308594 397.414062 L 726.308594 399.050781 C 726.308594 399.121094 726.28125 399.183594 726.230469 399.238281 C 726.179688 399.289062 726.117188 399.3125 726.042969 399.3125 L 725.195312 399.3125 C 725.121094 399.3125 725.058594 399.289062 725.011719 399.238281 C 724.957031 399.183594 724.933594 399.121094 724.933594 399.050781 L 724.933594 397.414062 C 724.933594 397.339844 724.960938 397.277344 725.011719 397.226562 C 725.0625 397.175781 725.125 397.148438 725.195312 397.148438 Z M 723.058594 399.039062 C 723.019531 399.039062 722.988281 399.054688 722.960938 399.078125 C 722.933594 399.105469 722.921875 399.136719 722.921875 399.171875 C 722.921875 399.210938 722.933594 399.242188 722.960938 399.273438 C 722.988281 399.300781 723.019531 399.3125 723.058594 399.3125 L 724.160156 399.3125 C 724.195312 399.3125 724.226562 399.300781 724.253906 399.273438 C 724.28125 399.246094 724.296875 399.214844 724.296875 399.175781 L 724.296875 398.46875 C 724.296875 398.433594 724.28125 398.398438 724.253906 398.371094 C 724.226562 398.347656 724.195312 398.332031 724.160156 398.332031 C 724.121094 398.332031 724.089844 398.347656 724.0625 398.375 C 724.035156 398.402344 724.023438 398.433594 724.023438 398.46875 L 724.023438 399.039062 L 723.75 399.039062 L 723.75 397.152344 L 723.0625 397.152344 C 723.027344 397.152344 722.992188 397.164062 722.96875 397.191406 C 722.941406 397.21875 722.925781 397.25 722.925781 397.289062 C 722.925781 397.328125 722.941406 397.359375 722.96875 397.386719 C 722.992188 397.414062 723.027344 397.425781 723.0625 397.425781 L 723.476562 397.425781 L 723.476562 399.039062 Z M 721.046875 399.039062 C 721.011719 399.039062 720.976562 399.054688 720.953125 399.078125 C 720.925781 399.105469 720.910156 399.136719 720.910156 399.171875 C 720.910156 399.210938 720.925781 399.242188 720.953125 399.273438 C 720.976562 399.300781 721.011719 399.3125 721.046875 399.3125 L 722.148438 399.3125 C 722.1875 399.3125 722.21875 399.300781 722.246094 399.273438 C 722.273438 399.246094 722.285156 399.214844 722.285156 399.175781 L 722.285156 398.46875 C 722.285156 398.433594 722.273438 398.398438 722.246094 398.371094 C 722.21875 398.347656 722.1875 398.332031 722.148438 398.332031 C 722.109375 398.332031 722.078125 398.347656 722.050781 398.375 C 722.027344 398.402344 722.011719 398.433594 722.011719 398.46875 L 722.011719 399.039062 L 721.738281 399.039062 L 721.738281 397.152344 L 721.054688 397.152344 C 721.015625 397.152344 720.984375 397.164062 720.957031 397.191406 C 720.929688 397.21875 720.917969 397.25 720.917969 397.289062 C 720.917969 397.328125 720.929688 397.359375 720.957031 397.386719 C 720.984375 397.414062 721.015625 397.425781 721.054688 397.425781 L 721.46875 397.425781 L 721.46875 399.039062 Z M 719.179688 399.039062 L 720.011719 399.039062 L 720.011719 397.425781 L 719.179688 397.425781 Z M 718.980469 399.238281 C 718.929688 399.183594 718.90625 399.121094 718.90625 399.050781 L 718.90625 397.414062 C 718.90625 397.339844 718.933594 397.277344 718.984375 397.226562 C 719.035156 397.175781 719.097656 397.148438 719.167969 397.148438 L 720.019531 397.148438 C 720.089844 397.148438 720.152344 397.175781 720.203125 397.226562 C 720.253906 397.277344 720.28125 397.339844 720.28125 397.414062 L 720.28125 399.050781 C 720.28125 399.121094 720.253906 399.183594 720.203125 399.238281 C 720.152344 399.289062 720.089844 399.3125 720.015625 399.3125 L 719.167969 399.3125 C 719.09375 399.3125 719.03125 399.289062 718.980469 399.238281 Z M 741.679688 393.582031 L 740.847656 393.582031 L 740.847656 395.199219 L 741.679688 395.199219 Z M 741.683594 395.472656 L 740.835938 395.472656 C 740.765625 395.472656 740.703125 395.445312 740.652344 395.394531 C 740.601562 395.34375 740.574219 395.28125 740.574219 395.207031 L 740.574219 393.570312 C 740.574219 393.5 740.601562 393.4375 740.652344 393.382812 C 740.703125 393.332031 740.765625 393.308594 740.835938 393.308594 L 741.6875 393.308594 C 741.757812 393.308594 741.820312 393.332031 741.871094 393.382812 C 741.921875 393.4375 741.949219 393.5 741.949219 393.570312 L 741.949219 395.207031 C 741.949219 395.28125 741.921875 395.34375 741.871094 395.394531 C 741.820312 395.445312 741.757812 395.472656 741.683594 395.472656 Z M 739.703125 394.53125 C 739.675781 394.558594 739.664062 394.589844 739.664062 394.628906 L 739.664062 395.199219 L 739.390625 395.199219 L 739.390625 393.308594 L 738.703125 393.308594 C 738.667969 393.308594 738.632812 393.324219 738.609375 393.351562 C 738.582031 393.375 738.570312 393.410156 738.570312 393.449219 C 738.570312 393.484375 738.582031 393.515625 738.609375 393.542969 C 738.632812 393.570312 738.667969 393.582031 738.703125 393.582031 L 739.117188 393.582031 L 739.117188 395.199219 L 738.699219 395.199219 C 738.660156 395.199219 738.628906 395.210938 738.601562 395.238281 C 738.574219 395.261719 738.5625 395.292969 738.5625 395.332031 C 738.5625 395.371094 738.574219 395.402344 738.601562 395.429688 C 738.628906 395.457031 738.660156 395.472656 738.699219 395.472656 L 739.800781 395.472656 C 739.835938 395.472656 739.871094 395.457031 739.894531 395.429688 C 739.921875 395.40625 739.9375 395.371094 739.9375 395.335938 L 739.9375 394.628906 C 739.9375 394.589844 739.921875 394.558594 739.894531 394.53125 C 739.871094 394.503906 739.835938 394.492188 739.800781 394.492188 C 739.761719 394.492188 739.730469 394.503906 739.703125 394.53125 Z M 737.660156 393.582031 L 736.828125 393.582031 L 736.828125 395.199219 L 737.660156 395.199219 Z M 737.667969 395.472656 L 736.820312 395.472656 C 736.746094 395.472656 736.683594 395.445312 736.632812 395.394531 C 736.582031 395.34375 736.554688 395.28125 736.554688 395.207031 L 736.554688 393.570312 C 736.554688 393.5 736.582031 393.4375 736.632812 393.382812 C 736.6875 393.332031 736.746094 393.308594 736.820312 393.308594 L 737.671875 393.308594 C 737.742188 393.308594 737.800781 393.332031 737.851562 393.382812 C 737.90625 393.4375 737.929688 393.5 737.929688 393.570312 L 737.929688 395.207031 C 737.929688 395.28125 737.90625 395.34375 737.851562 395.394531 C 737.800781 395.445312 737.738281 395.472656 737.667969 395.472656 Z M 735.878906 395.429688 C 735.90625 395.40625 735.917969 395.371094 735.917969 395.335938 L 735.917969 394.628906 C 735.917969 394.589844 735.90625 394.558594 735.878906 394.53125 C 735.851562 394.503906 735.820312 394.492188 735.78125 394.492188 C 735.742188 394.492188 735.710938 394.503906 735.683594 394.53125 C 735.660156 394.558594 735.644531 394.589844 735.644531 394.628906 L 735.644531 395.199219 L 735.371094 395.199219 L 735.371094 393.308594 L 734.6875 393.308594 C 734.648438 393.308594 734.617188 393.324219 734.589844 393.351562 C 734.5625 393.375 734.550781 393.410156 734.550781 393.449219 C 734.550781 393.484375 734.5625 393.515625 734.589844 393.542969 C 734.617188 393.570312 734.648438 393.582031 734.6875 393.582031 L 735.097656 393.582031 L 735.097656 395.199219 L 734.679688 395.199219 C 734.640625 395.199219 734.609375 395.210938 734.582031 395.238281 C 734.558594 395.261719 734.542969 395.292969 734.542969 395.332031 C 734.542969 395.371094 734.558594 395.402344 734.582031 395.429688 C 734.609375 395.457031 734.640625 395.472656 734.679688 395.472656 L 735.78125 395.472656 C 735.820312 395.472656 735.851562 395.457031 735.878906 395.429688 Z M 733.640625 393.582031 L 732.808594 393.582031 L 732.808594 395.199219 L 733.640625 395.199219 Z M 733.652344 393.308594 C 733.722656 393.308594 733.785156 393.332031 733.835938 393.382812 C 733.886719 393.4375 733.914062 393.5 733.914062 393.570312 L 733.914062 395.207031 C 733.914062 395.28125 733.886719 395.34375 733.835938 395.394531 C 733.785156 395.445312 733.722656 395.472656 733.648438 395.472656 L 732.800781 395.472656 C 732.726562 395.472656 732.664062 395.445312 732.613281 395.394531 C 732.5625 395.34375 732.539062 395.28125 732.539062 395.207031 L 732.539062 393.570312 C 732.539062 393.5 732.5625 393.4375 732.617188 393.382812 C 732.667969 393.332031 732.730469 393.308594 732.800781 393.308594 Z M 730.660156 395.199219 C 730.625 395.199219 730.589844 395.210938 730.566406 395.238281 C 730.539062 395.261719 730.527344 395.292969 730.527344 395.332031 C 730.527344 395.371094 730.539062 395.402344 730.566406 395.429688 C 730.589844 395.457031 730.625 395.472656 730.660156 395.472656 L 731.761719 395.472656 C 731.800781 395.472656 731.832031 395.457031 731.859375 395.429688 C 731.886719 395.40625 731.898438 395.371094 731.898438 395.335938 L 731.898438 394.628906 C 731.898438 394.589844 731.886719 394.558594 731.859375 394.53125 C 731.832031 394.503906 731.800781 394.492188 731.761719 394.492188 C 731.726562 394.492188 731.691406 394.503906 731.667969 394.53125 C 731.640625 394.558594 731.625 394.589844 731.625 394.628906 L 731.625 395.199219 L 731.355469 395.199219 L 731.355469 393.308594 L 730.667969 393.308594 C 730.628906 393.308594 730.597656 393.324219 730.570312 393.351562 C 730.546875 393.375 730.53125 393.410156 730.53125 393.449219 C 730.53125 393.484375 730.546875 393.515625 730.570312 393.542969 C 730.597656 393.570312 730.628906 393.582031 730.667969 393.582031 L 731.082031 393.582031 L 731.082031 395.199219 Z M 729.65625 394.53125 C 729.628906 394.558594 729.617188 394.589844 729.617188 394.628906 L 729.617188 395.199219 L 729.34375 395.199219 L 729.34375 393.308594 L 728.660156 393.308594 C 728.621094 393.308594 728.589844 393.324219 728.5625 393.351562 C 728.535156 393.375 728.523438 393.410156 728.523438 393.449219 C 728.523438 393.484375 728.535156 393.515625 728.5625 393.542969 C 728.589844 393.570312 728.621094 393.582031 728.660156 393.582031 L 729.070312 393.582031 L 729.070312 395.199219 L 728.652344 395.199219 C 728.613281 395.199219 728.582031 395.210938 728.554688 395.238281 C 728.53125 395.261719 728.515625 395.292969 728.515625 395.332031 C 728.515625 395.371094 728.53125 395.402344 728.554688 395.429688 C 728.582031 395.457031 728.613281 395.472656 728.652344 395.472656 L 729.753906 395.472656 C 729.792969 395.472656 729.824219 395.457031 729.851562 395.429688 C 729.878906 395.40625 729.890625 395.371094 729.890625 395.335938 L 729.890625 394.628906 C 729.890625 394.589844 729.878906 394.558594 729.851562 394.53125 C 729.824219 394.503906 729.792969 394.492188 729.753906 394.492188 C 729.714844 394.492188 729.683594 394.503906 729.65625 394.53125 Z M 727.613281 393.582031 L 726.785156 393.582031 L 726.785156 395.199219 L 727.613281 395.199219 Z M 727.625 393.308594 C 727.695312 393.308594 727.753906 393.332031 727.808594 393.382812 C 727.859375 393.4375 727.882812 393.5 727.882812 393.570312 L 727.882812 395.207031 C 727.882812 395.28125 727.859375 395.34375 727.808594 395.394531 C 727.753906 395.445312 727.695312 395.472656 727.621094 395.472656 L 726.773438 395.472656 C 726.699219 395.472656 726.636719 395.445312 726.585938 395.394531 C 726.535156 395.34375 726.511719 395.28125 726.511719 395.207031 L 726.511719 393.570312 C 726.511719 393.5 726.535156 393.4375 726.589844 393.382812 C 726.640625 393.332031 726.703125 393.308594 726.773438 393.308594 Z M 732.722656 392.359375 L 733.554688 392.359375 L 733.554688 390.746094 L 732.722656 390.746094 Z M 732.527344 392.554688 C 732.472656 392.503906 732.449219 392.441406 732.449219 392.371094 L 732.449219 390.730469 C 732.449219 390.660156 732.476562 390.597656 732.527344 390.546875 C 732.578125 390.496094 732.640625 390.46875 732.710938 390.46875 L 733.5625 390.46875 C 733.632812 390.46875 733.695312 390.496094 733.746094 390.546875 C 733.796875 390.597656 733.824219 390.660156 733.824219 390.730469 L 733.824219 392.371094 C 733.824219 392.441406 733.796875 392.503906 733.746094 392.554688 C 733.695312 392.609375 733.632812 392.632812 733.558594 392.632812 L 732.710938 392.632812 C 732.636719 392.632812 732.578125 392.609375 732.527344 392.554688 Z M 730.574219 392.359375 C 730.535156 392.359375 730.503906 392.371094 730.476562 392.398438 C 730.449219 392.425781 730.4375 392.457031 730.4375 392.492188 C 730.4375 392.53125 730.449219 392.5625 730.476562 392.589844 C 730.503906 392.617188 730.535156 392.632812 730.574219 392.632812 L 731.675781 392.632812 C 731.710938 392.632812 731.746094 392.621094 731.769531 392.59375 C 731.796875 392.566406 731.8125 392.535156 731.8125 392.496094 L 731.8125 391.789062 C 731.8125 391.75 731.796875 391.71875 731.769531 391.691406 C 731.746094 391.664062 731.710938 391.652344 731.675781 391.652344 C 731.636719 391.652344 731.605469 391.664062 731.578125 391.691406 C 731.550781 391.71875 731.539062 391.753906 731.539062 391.789062 L 731.539062 392.359375 L 731.265625 392.359375 L 731.265625 390.585938 L 732.167969 390.585938 C 732.246094 390.585938 732.308594 390.519531 732.308594 390.441406 L 732.308594 390.265625 L 731.03125 390.265625 L 731.03125 390.441406 C 731.03125 390.453125 731.039062 390.460938 731.039062 390.472656 L 730.578125 390.472656 C 730.542969 390.472656 730.507812 390.484375 730.484375 390.511719 C 730.457031 390.539062 730.445312 390.570312 730.445312 390.609375 C 730.445312 390.648438 730.457031 390.679688 730.484375 390.707031 C 730.507812 390.730469 730.542969 390.746094 730.578125 390.746094 L 730.992188 390.746094 L 730.992188 392.359375 Z M 728.703125 392.359375 L 729.535156 392.359375 L 729.535156 390.746094 L 728.703125 390.746094 Z M 728.507812 392.554688 C 728.457031 392.503906 728.429688 392.441406 728.429688 392.371094 L 728.429688 390.730469 C 728.429688 390.660156 728.457031 390.597656 728.507812 390.546875 C 728.5625 390.496094 728.621094 390.46875 728.695312 390.46875 L 729.546875 390.46875 C 729.617188 390.46875 729.675781 390.496094 729.726562 390.546875 C 729.777344 390.597656 729.804688 390.660156 729.804688 390.730469 L 729.804688 392.371094 C 729.804688 392.441406 729.777344 392.503906 729.726562 392.554688 C 729.675781 392.609375 729.613281 392.632812 729.542969 392.632812 L 728.695312 392.632812 C 728.621094 392.632812 728.558594 392.609375 728.507812 392.554688 Z M 726.695312 392.359375 L 727.527344 392.359375 L 727.527344 390.746094 L 726.695312 390.746094 Z M 726.5 392.554688 C 726.445312 392.503906 726.421875 392.441406 726.421875 392.371094 L 726.421875 390.730469 C 726.421875 390.660156 726.449219 390.597656 726.5 390.546875 C 726.550781 390.496094 726.613281 390.46875 726.683594 390.46875 L 727.535156 390.46875 C 727.605469 390.46875 727.667969 390.496094 727.71875 390.546875 C 727.769531 390.597656 727.796875 390.660156 727.796875 390.730469 L 727.796875 392.371094 C 727.796875 392.441406 727.769531 392.503906 727.71875 392.554688 C 727.667969 392.609375 727.605469 392.632812 727.53125 392.632812 L 726.683594 392.632812 C 726.609375 392.632812 726.546875 392.609375 726.5 392.554688 Z M 724.6875 392.359375 L 725.515625 392.359375 L 725.515625 390.746094 L 724.6875 390.746094 Z M 724.414062 390.730469 C 724.414062 390.660156 724.4375 390.597656 724.492188 390.546875 C 724.542969 390.496094 724.605469 390.46875 724.675781 390.46875 L 725.527344 390.46875 C 725.597656 390.46875 725.65625 390.496094 725.710938 390.546875 C 725.761719 390.597656 725.785156 390.660156 725.785156 390.730469 L 725.785156 392.371094 C 725.785156 392.441406 725.761719 392.503906 725.710938 392.554688 C 725.65625 392.609375 725.597656 392.632812 725.523438 392.632812 L 724.675781 392.632812 C 724.601562 392.632812 724.539062 392.609375 724.488281 392.554688 C 724.4375 392.503906 724.414062 392.441406 724.414062 392.371094 Z M 723.5 392.359375 L 723.226562 392.359375 L 723.226562 390.472656 L 722.542969 390.472656 C 722.503906 390.472656 722.472656 390.484375 722.445312 390.511719 C 722.421875 390.539062 722.40625 390.570312 722.40625 390.609375 C 722.40625 390.648438 722.421875 390.679688 722.445312 390.707031 C 722.472656 390.730469 722.503906 390.746094 722.542969 390.746094 L 722.957031 390.746094 L 722.957031 392.359375 L 722.535156 392.359375 C 722.5 392.359375 722.464844 392.371094 722.441406 392.398438 C 722.414062 392.425781 722.398438 392.457031 722.398438 392.492188 C 722.398438 392.53125 722.414062 392.5625 722.441406 392.589844 C 722.464844 392.617188 722.5 392.632812 722.535156 392.632812 L 723.636719 392.632812 C 723.675781 392.632812 723.707031 392.621094 723.734375 392.59375 C 723.761719 392.566406 723.773438 392.535156 723.773438 392.496094 L 723.773438 391.789062 C 723.773438 391.75 723.761719 391.71875 723.734375 391.691406 C 723.707031 391.664062 723.675781 391.652344 723.636719 391.652344 C 723.601562 391.652344 723.566406 391.664062 723.542969 391.691406 C 723.515625 391.71875 723.5 391.753906 723.5 391.789062 Z M 720.527344 392.359375 C 720.488281 392.359375 720.457031 392.371094 720.429688 392.398438 C 720.40625 392.425781 720.390625 392.457031 720.390625 392.492188 C 720.390625 392.53125 720.40625 392.5625 720.429688 392.589844 C 720.457031 392.617188 720.488281 392.632812 720.527344 392.632812 L 721.628906 392.632812 C 721.667969 392.632812 721.699219 392.621094 721.726562 392.59375 C 721.75 392.566406 721.765625 392.535156 721.765625 392.496094 L 721.765625 391.789062 C 721.765625 391.75 721.75 391.71875 721.726562 391.691406 C 721.699219 391.664062 721.667969 391.652344 721.628906 391.652344 C 721.589844 391.652344 721.558594 391.664062 721.53125 391.691406 C 721.503906 391.71875 721.492188 391.753906 721.492188 391.789062 L 721.492188 392.359375 L 721.21875 392.359375 L 721.21875 390.472656 L 720.535156 390.472656 C 720.496094 390.472656 720.464844 390.484375 720.4375 390.511719 C 720.410156 390.539062 720.398438 390.570312 720.398438 390.609375 C 720.398438 390.648438 720.410156 390.679688 720.4375 390.707031 C 720.464844 390.730469 720.496094 390.746094 720.535156 390.746094 L 720.945312 390.746094 L 720.945312 392.359375 Z M 718.386719 391.476562 L 718.386719 392.371094 C 718.386719 392.441406 718.410156 392.503906 718.460938 392.554688 C 718.511719 392.609375 718.574219 392.632812 718.648438 392.632812 L 719.496094 392.632812 C 719.566406 392.632812 719.628906 392.609375 719.683594 392.554688 C 719.734375 392.503906 719.757812 392.441406 719.757812 392.371094 L 719.757812 390.730469 C 719.757812 390.660156 719.734375 390.597656 719.683594 390.546875 C 719.664062 390.53125 719.648438 390.515625 719.628906 390.503906 C 719.519531 390.582031 719.410156 390.664062 719.304688 390.746094 L 719.488281 390.746094 L 719.488281 392.359375 L 718.660156 392.359375 L 718.660156 391.25 C 718.566406 391.324219 718.476562 391.398438 718.386719 391.476562 Z M 699.265625 397.1875 L 699.742188 397.1875 L 699.742188 396.378906 L 699.816406 396.378906 L 699.816406 397.1875 L 700.246094 397.1875 C 700.378906 397.1875 700.488281 397.152344 700.574219 397.078125 C 700.660156 397 700.707031 396.890625 700.707031 396.769531 C 700.707031 396.671875 700.679688 396.585938 700.625 396.523438 C 700.675781 396.453125 700.691406 396.375 700.691406 396.316406 C 700.691406 396.195312 700.644531 396.09375 700.558594 396.015625 C 700.472656 395.941406 700.347656 395.902344 700.175781 395.902344 L 699.101562 395.902344 L 699.101562 396.378906 L 699.265625 396.378906 Z M 698.582031 396.359375 L 698.449219 396.359375 L 698.449219 395.902344 L 699.046875 395.902344 L 699.046875 397.1875 L 698.582031 397.1875 L 698.582031 396.359375 " fill-opacity="1" fill-rule="nonzero"/><path fill="#fed2af" d="M 723.4375 404.78125 L 723.4375 406.152344 L 724.097656 406.667969 C 724.097656 406.667969 721.839844 409.160156 721.019531 409.160156 C 720.210938 409.160156 717.984375 406.863281 717.984375 406.863281 L 718.738281 406.320312 L 718.738281 404.9375 C 718.414062 404.601562 718.210938 404.15625 718.183594 403.597656 L 718.125 402.128906 C 717.6875 402.167969 716.984375 400.90625 717.359375 400.308594 C 717.574219 399.972656 717.847656 400.199219 718.058594 400.492188 L 717.984375 398.621094 C 717.953125 397.96875 718.472656 397.421875 719.125 397.421875 L 722.917969 397.421875 C 723.570312 397.421875 724.089844 397.96875 724.058594 398.621094 L 723.964844 400.984375 C 724.105469 400.589844 724.445312 399.820312 724.753906 400.308594 C 725.152344 400.9375 724.34375 402.3125 723.917969 402.105469 L 723.859375 403.597656 C 723.835938 404.074219 723.683594 404.46875 723.4375 404.78125 Z M 710.671875 419.765625 L 706.925781 417.59375 L 705.300781 419.949219 L 705.296875 419.949219 L 704.65625 420.898438 C 704.035156 421.820312 704.996094 423.882812 706.101562 424 L 715.996094 424.25 L 716.046875 423.738281 L 713.175781 423.738281 L 713.085938 422.785156 C 713.050781 422.636719 713.148438 422.492188 713.285156 422.492188 L 716.175781 422.492188 L 716.320312 421.089844 L 710.167969 420.453125 Z M 733.289062 424.089844 L 727.5625 423.386719 L 727.636719 422.699219 C 727.660156 422.59375 727.59375 422.492188 727.5 422.492188 L 723.480469 422.492188 L 723.605469 419.707031 L 729.632812 419.976562 L 729.347656 419.453125 L 733.699219 418.011719 L 735.0625 421.011719 L 735.171875 421.234375 C 735.648438 422.238281 734.398438 424.136719 733.289062 424.089844 " fill-opacity="1" fill-rule="nonzero"/><g clip-path="url(#c6f2394403)"><path fill="#44475a" d="M 701.921875 420.3125 L 701.921875 420.675781 C 701.921875 420.742188 701.976562 420.796875 702.039062 420.796875 C 702.105469 420.796875 702.160156 420.742188 702.160156 420.675781 L 702.160156 420.3125 C 702.160156 420.25 702.105469 420.195312 702.039062 420.195312 C 701.976562 420.195312 701.921875 420.25 701.921875 420.3125 Z M 701.589844 420.675781 L 701.589844 420.3125 C 701.589844 420.25 701.539062 420.195312 701.472656 420.195312 C 701.40625 420.195312 701.355469 420.25 701.355469 420.3125 L 701.355469 420.675781 C 701.355469 420.742188 701.40625 420.796875 701.472656 420.796875 C 701.539062 420.796875 701.589844 420.742188 701.589844 420.675781 Z M 701.023438 420.675781 L 701.023438 420.3125 C 701.023438 420.25 700.96875 420.195312 700.90625 420.195312 C 700.839844 420.195312 700.785156 420.25 700.785156 420.3125 L 700.785156 420.675781 C 700.785156 420.742188 700.839844 420.796875 700.90625 420.796875 C 700.96875 420.796875 701.023438 420.742188 701.023438 420.675781 Z M 700.457031 420.675781 L 700.457031 420.3125 C 700.457031 420.25 700.402344 420.195312 700.335938 420.195312 C 700.269531 420.195312 700.21875 420.25 700.21875 420.3125 L 700.21875 420.675781 C 700.21875 420.742188 700.269531 420.796875 700.335938 420.796875 C 700.402344 420.796875 700.457031 420.742188 700.457031 420.675781 Z M 699.886719 420.675781 L 699.886719 420.3125 C 699.886719 420.25 699.835938 420.195312 699.769531 420.195312 C 699.703125 420.195312 699.652344 420.25 699.652344 420.3125 L 699.652344 420.675781 C 699.652344 420.742188 699.703125 420.796875 699.769531 420.796875 C 699.835938 420.796875 699.886719 420.742188 699.886719 420.675781 Z M 699.320312 420.675781 L 699.320312 420.3125 C 699.320312 420.25 699.265625 420.195312 699.199219 420.195312 C 699.136719 420.195312 699.082031 420.25 699.082031 420.3125 L 699.082031 420.675781 C 699.082031 420.742188 699.136719 420.796875 699.199219 420.796875 C 699.265625 420.796875 699.320312 420.742188 699.320312 420.675781 Z M 698.75 420.675781 L 698.75 420.3125 C 698.75 420.25 698.699219 420.195312 698.632812 420.195312 C 698.566406 420.195312 698.515625 420.25 698.515625 420.3125 L 698.515625 420.675781 C 698.515625 420.742188 698.566406 420.796875 698.632812 420.796875 C 698.699219 420.796875 698.75 420.742188 698.75 420.675781 Z M 698.183594 420.3125 C 698.183594 420.25 698.128906 420.195312 698.066406 420.195312 C 698 420.195312 697.945312 420.25 697.945312 420.3125 L 697.945312 420.675781 C 697.945312 420.742188 698 420.796875 698.066406 420.796875 C 698.128906 420.796875 698.183594 420.742188 698.183594 420.675781 Z M 698.265625 421.359375 L 701.707031 421.359375 C 701.773438 421.359375 701.824219 421.304688 701.824219 421.238281 C 701.824219 421.175781 701.773438 421.121094 701.707031 421.121094 L 698.265625 421.121094 C 698.199219 421.121094 698.148438 421.175781 698.148438 421.238281 C 698.148438 421.304688 698.199219 421.359375 698.265625 421.359375 Z M 722.613281 400.164062 C 722.398438 400.160156 722.191406 400.214844 722.019531 400.328125 C 721.964844 400.363281 721.949219 400.4375 721.984375 400.492188 C 722.023438 400.546875 722.09375 400.5625 722.148438 400.523438 C 722.277344 400.441406 722.445312 400.394531 722.609375 400.398438 C 722.773438 400.402344 722.941406 400.457031 723.0625 400.546875 C 723.082031 400.5625 723.105469 400.570312 723.132812 400.570312 C 723.167969 400.570312 723.203125 400.550781 723.226562 400.519531 C 723.265625 400.464844 723.253906 400.394531 723.199219 400.355469 C 723.039062 400.234375 722.828125 400.167969 722.613281 400.164062 Z M 719.671875 400.1875 C 719.457031 400.175781 719.246094 400.226562 719.070312 400.332031 C 719.015625 400.363281 718.996094 400.4375 719.027344 400.492188 C 719.0625 400.550781 719.132812 400.570312 719.191406 400.535156 C 719.324219 400.457031 719.492188 400.417969 719.660156 400.425781 C 719.824219 400.433594 719.984375 400.492188 720.101562 400.585938 C 720.121094 400.601562 720.148438 400.609375 720.171875 400.609375 C 720.207031 400.609375 720.242188 400.59375 720.265625 400.566406 C 720.308594 400.515625 720.296875 400.441406 720.246094 400.398438 C 720.089844 400.273438 719.886719 400.199219 719.671875 400.1875 Z M 720.023438 404.226562 C 720.015625 404.292969 720.058594 404.351562 720.121094 404.363281 C 720.152344 404.367188 720.621094 404.445312 721.148438 404.445312 C 721.425781 404.445312 721.71875 404.425781 721.972656 404.363281 C 722.035156 404.347656 722.074219 404.28125 722.058594 404.21875 C 722.042969 404.15625 721.980469 404.117188 721.917969 404.132812 C 721.21875 404.300781 720.171875 404.132812 720.160156 404.128906 C 720.09375 404.117188 720.035156 404.164062 720.023438 404.226562 Z M 707.515625 416.308594 C 707.542969 416.320312 710.140625 417.5 710.902344 418.308594 C 710.925781 418.332031 710.957031 418.34375 710.988281 418.34375 C 711.015625 418.34375 711.046875 418.335938 711.070312 418.3125 C 711.117188 418.269531 711.117188 418.195312 711.074219 418.144531 C 710.28125 417.304688 707.722656 416.140625 707.613281 416.089844 C 707.554688 416.0625 707.484375 416.089844 707.457031 416.152344 C 707.429688 416.210938 707.457031 416.28125 707.515625 416.308594 Z M 729.101562 418.519531 C 729.128906 418.519531 729.15625 418.511719 729.179688 418.488281 C 730.453125 417.296875 733.066406 416.746094 733.09375 416.742188 C 733.15625 416.730469 733.195312 416.667969 733.183594 416.601562 C 733.171875 416.539062 733.109375 416.496094 733.042969 416.507812 C 732.933594 416.53125 730.339844 417.078125 729.019531 418.316406 C 728.972656 418.359375 728.96875 418.4375 729.015625 418.484375 C 729.035156 418.507812 729.070312 418.519531 729.101562 418.519531 Z M 723.914062 399.410156 C 723.925781 399.160156 723.691406 398.972656 723.453125 399.035156 L 721.214844 399.617188 C 721.214844 399.617188 719.78125 399.265625 718.84375 399.039062 C 718.488281 398.953125 718.140625 399.230469 718.144531 399.597656 L 718.152344 400.601562 L 718.230469 400.789062 C 718.277344 400.71875 718.355469 400.675781 718.445312 400.675781 L 720.570312 400.675781 C 720.71875 400.675781 720.839844 400.796875 720.839844 400.945312 L 720.839844 400.957031 L 721.429688 400.957031 L 721.429688 400.917969 C 721.429688 400.785156 721.539062 400.675781 721.671875 400.675781 L 723.847656 400.675781 C 723.851562 400.675781 723.851562 400.675781 723.855469 400.675781 Z M 723.851562 401.332031 C 723.851562 401.34375 723.847656 401.351562 723.84375 401.363281 L 723.820312 401.375 L 723.84375 400.917969 L 721.671875 400.914062 L 721.667969 402.230469 L 723.847656 402.234375 L 723.851562 402.230469 Z M 720.601562 400.945312 C 720.601562 400.929688 720.585938 400.914062 720.570312 400.914062 L 718.445312 400.914062 C 718.429688 400.914062 718.414062 400.929688 718.414062 400.945312 L 718.414062 402.203125 C 718.414062 402.222656 718.429688 402.234375 718.445312 402.234375 L 720.570312 402.234375 C 720.585938 402.234375 720.601562 402.222656 720.601562 402.203125 Z M 724.511719 396.292969 C 725.023438 397.113281 725.082031 398.4375 724.625 400.175781 C 724.578125 400.148438 724.53125 400.148438 724.484375 400.164062 L 724.089844 401.15625 L 724.089844 402.230469 C 724.089844 402.363281 723.980469 402.472656 723.847656 402.472656 L 721.671875 402.472656 C 721.539062 402.472656 721.429688 402.363281 721.429688 402.230469 L 721.429688 401.195312 L 720.839844 401.195312 L 720.839844 402.203125 C 720.839844 402.351562 720.71875 402.472656 720.570312 402.472656 L 718.445312 402.472656 C 718.300781 402.472656 718.179688 402.351562 718.179688 402.203125 L 718.179688 401.234375 C 718.15625 401.222656 718.136719 401.203125 718.128906 401.175781 L 717.730469 400.175781 C 717.648438 400.136719 717.566406 400.128906 717.488281 400.175781 C 717.171875 399.246094 716.882812 397.957031 717.253906 396.980469 C 718.566406 393.511719 722.613281 395.761719 722.613281 395.761719 C 722.613281 395.761719 723.914062 395.332031 724.511719 396.292969 Z M 741.175781 385.292969 C 741.140625 385.347656 741.15625 385.421875 741.210938 385.457031 C 741.230469 385.472656 741.253906 385.476562 741.277344 385.476562 C 741.316406 385.476562 741.351562 385.457031 741.375 385.425781 C 743.230469 382.59375 741.445312 380.667969 741.429688 380.648438 C 741.382812 380.601562 741.308594 380.597656 741.261719 380.644531 C 741.214844 380.6875 741.214844 380.765625 741.257812 380.8125 C 741.273438 380.828125 742.933594 382.617188 741.175781 385.292969 Z M 740.417969 385.097656 C 740.4375 385.109375 740.460938 385.117188 740.480469 385.117188 C 740.519531 385.117188 740.558594 385.097656 740.582031 385.0625 C 742.039062 382.84375 740.632812 381.328125 740.621094 381.316406 C 740.574219 381.265625 740.5 381.265625 740.453125 381.3125 C 740.40625 381.355469 740.402344 381.429688 740.449219 381.480469 C 740.5 381.535156 741.734375 382.875 740.382812 384.933594 C 740.347656 384.988281 740.363281 385.0625 740.417969 385.097656 Z M 739.632812 384.445312 C 739.652344 384.460938 739.675781 384.46875 739.695312 384.46875 C 739.734375 384.46875 739.773438 384.449219 739.796875 384.414062 C 740.746094 382.96875 739.824219 381.976562 739.816406 381.964844 C 739.769531 381.917969 739.695312 381.917969 739.648438 381.960938 C 739.601562 382.007812 739.601562 382.082031 739.644531 382.128906 C 739.675781 382.164062 740.441406 383 739.597656 384.28125 C 739.5625 384.339844 739.578125 384.410156 739.632812 384.445312 Z M 736.304688 385.558594 C 736.328125 385.558594 736.351562 385.554688 736.371094 385.539062 C 736.425781 385.503906 736.441406 385.429688 736.402344 385.375 C 734.652344 382.707031 736.253906 380.96875 736.324219 380.894531 C 736.371094 380.847656 736.367188 380.773438 736.320312 380.726562 C 736.273438 380.679688 736.199219 380.683594 736.152344 380.730469 C 736.136719 380.75 734.347656 382.675781 736.207031 385.507812 C 736.230469 385.542969 736.265625 385.558594 736.304688 385.558594 Z M 737 385.148438 C 737.023438 385.183594 737.0625 385.199219 737.097656 385.199219 C 737.121094 385.199219 737.144531 385.195312 737.164062 385.179688 C 737.21875 385.144531 737.234375 385.070312 737.199219 385.015625 C 735.847656 382.960938 737.078125 381.617188 737.132812 381.5625 C 737.179688 381.515625 737.175781 381.4375 737.128906 381.394531 C 737.082031 381.347656 737.007812 381.351562 736.960938 381.398438 C 736.949219 381.414062 735.542969 382.925781 737 385.148438 Z M 737.886719 384.550781 C 737.90625 384.550781 737.929688 384.542969 737.949219 384.53125 C 738.003906 384.492188 738.019531 384.421875 737.984375 384.367188 C 737.140625 383.082031 737.90625 382.246094 737.9375 382.210938 C 737.984375 382.164062 737.980469 382.089844 737.933594 382.042969 C 737.886719 382 737.8125 382 737.765625 382.046875 C 737.757812 382.058594 736.835938 383.050781 737.785156 384.496094 C 737.808594 384.53125 737.847656 384.550781 737.886719 384.550781 Z M 703.082031 419.597656 L 697.136719 419.597656 L 697.570312 420.035156 L 702.644531 420.035156 Z M 703.3125 412.78125 C 703.3125 412.453125 703.046875 412.1875 702.722656 412.1875 C 702.394531 412.1875 702.128906 412.453125 702.128906 412.78125 L 702.128906 414.765625 L 701.355469 414.765625 L 701.355469 411.632812 C 701.355469 411.1875 700.996094 410.824219 700.550781 410.824219 L 699.773438 410.824219 C 699.328125 410.824219 698.96875 411.1875 698.96875 411.632812 L 698.96875 416.054688 L 698.34375 416.054688 L 698.34375 414.070312 C 698.34375 413.742188 698.078125 413.476562 697.75 413.476562 C 697.425781 413.476562 697.160156 413.742188 697.160156 414.070312 L 697.160156 416.097656 C 697.160156 416.726562 697.671875 417.238281 698.296875 417.238281 L 698.96875 417.238281 L 698.96875 418.988281 L 701.355469 418.988281 L 701.355469 415.949219 L 702.175781 415.949219 C 702.804688 415.949219 703.3125 415.441406 703.3125 414.8125 Z M 741.796875 419.359375 L 741.796875 421.742188 L 742.15625 421.742188 C 742.21875 421.742188 742.273438 421.703125 742.292969 421.644531 L 742.628906 420.6875 C 742.769531 420.296875 742.789062 419.875 742.691406 419.46875 C 742.675781 419.402344 742.617188 419.359375 742.550781 419.359375 Z M 741.796875 418.765625 L 742.550781 418.765625 C 742.890625 418.765625 743.1875 418.996094 743.265625 419.328125 C 743.394531 419.847656 743.367188 420.386719 743.1875 420.886719 L 742.847656 421.84375 C 742.746094 422.136719 742.46875 422.335938 742.15625 422.335938 L 741.796875 422.335938 L 741.796875 423.625 C 741.796875 423.859375 741.609375 424.050781 741.375 424.050781 L 737.90625 424.050781 C 737.671875 424.050781 737.480469 423.859375 737.480469 423.625 L 737.480469 418.4375 L 741.796875 418.4375 Z M 722.332031 417.605469 C 722.332031 416.894531 721.65625 416.316406 720.816406 416.316406 C 719.980469 416.316406 719.300781 416.894531 719.300781 417.605469 C 719.300781 418.316406 719.980469 418.894531 720.816406 418.894531 C 721.65625 418.894531 722.332031 418.316406 722.332031 417.605469 Z M 727.699219 411.929688 C 727.75 410.566406 728.253906 409.519531 728.277344 409.472656 C 728.304688 409.414062 728.378906 409.390625 728.4375 409.417969 C 728.496094 409.449219 728.519531 409.519531 728.488281 409.578125 C 728.484375 409.589844 727.988281 410.621094 727.933594 411.929688 L 728.378906 411.929688 C 728.691406 411.929688 728.941406 412.1875 728.929688 412.496094 L 728.601562 422.402344 C 728.59375 422.699219 728.351562 422.933594 728.054688 422.933594 L 713.132812 422.933594 C 712.835938 422.933594 712.59375 422.699219 712.585938 422.402344 L 712.257812 412.496094 C 712.246094 412.1875 712.496094 411.929688 712.808594 411.929688 L 713.628906 411.929688 C 713.660156 411.296875 713.226562 410.347656 713.222656 410.339844 C 713.195312 410.277344 713.222656 410.207031 713.28125 410.179688 C 713.339844 410.152344 713.410156 410.179688 713.4375 410.238281 C 713.457031 410.28125 713.894531 411.242188 713.867188 411.929688 L 720.417969 411.929688 L 720.386719 409.792969 C 720.382812 409.582031 720.496094 409.386719 720.679688 409.285156 L 720.882812 409.171875 L 719.585938 408.546875 C 719.347656 408.421875 719.136719 408.292969 718.957031 408.472656 L 718.339844 409.09375 C 718.226562 409.207031 718.03125 409.128906 718.027344 408.964844 L 717.984375 406.886719 C 717.9375 406.523438 718.738281 404.949219 718.738281 404.949219 C 718.738281 404.949219 719.125 407.515625 720.9375 409.144531 L 721.332031 408.925781 C 723.101562 407.488281 723.4375 404.785156 723.4375 404.785156 C 723.4375 404.785156 724.136719 406.304688 724.097656 406.667969 L 724.214844 408.53125 C 724.226562 408.695312 724.039062 408.800781 723.90625 408.703125 L 723.753906 408.59375 C 723.464844 408.382812 723.035156 408.335938 722.675781 408.46875 L 721.625 408.902344 L 721.625 411.929688 Z M 748.984375 424.074219 L 728.640625 424.074219 L 728.734375 423.320312 C 728.761719 423.21875 728.679688 423.117188 728.574219 423.117188 L 712.21875 423.117188 C 712.066406 423.117188 711.953125 423.261719 711.992188 423.410156 L 712.066406 424.074219 L 701.835938 424.074219 L 701.988281 423.71875 L 698.085938 423.71875 L 698.238281 424.074219 L 694.769531 424.074219 C 694.382812 424.074219 694.070312 424.386719 694.070312 424.773438 L 694.070312 425.71875 C 694.070312 426.105469 694.382812 426.414062 694.769531 426.414062 L 698.691406 426.414062 L 698.691406 429.714844 L 744.914062 429.714844 L 744.914062 426.414062 L 748.984375 426.414062 C 749.371094 426.414062 749.679688 426.105469 749.679688 425.71875 L 749.679688 424.773438 C 749.679688 424.386719 749.371094 424.074219 748.984375 424.074219 Z M 721.4375 403.316406 C 721.695312 403.222656 721.328125 402.5 721.136719 402.164062 C 721.097656 402.089844 720.996094 402.097656 720.964844 402.175781 C 720.839844 402.503906 720.589844 403.160156 720.59375 403.292969 C 720.597656 403.464844 721.101562 403.4375 721.4375 403.316406 Z M 719.753906 401.089844 C 719.632812 401.089844 719.535156 401.238281 719.535156 401.425781 C 719.535156 401.609375 719.632812 401.761719 719.753906 401.761719 C 719.875 401.761719 719.972656 401.609375 719.972656 401.425781 C 719.972656 401.238281 719.875 401.089844 719.753906 401.089844 Z M 722.511719 401.089844 C 722.390625 401.089844 722.289062 401.238281 722.289062 401.425781 C 722.289062 401.609375 722.390625 401.761719 722.511719 401.761719 C 722.632812 401.761719 722.730469 401.609375 722.730469 401.425781 C 722.730469 401.238281 722.632812 401.089844 722.511719 401.089844 Z M 720.933594 407.171875 C 721.347656 407.296875 723.078125 405.554688 723.40625 404.824219 C 722.945312 405.382812 722.179688 405.671875 721.316406 405.671875 L 720.726562 405.671875 C 719.972656 405.671875 719.292969 405.453125 718.828125 405.023438 C 719.414062 405.714844 720.59375 407.066406 720.933594 407.171875 Z M 718.492188 404.628906 C 718.492188 404.628906 718.496094 404.632812 718.5 404.636719 C 718.5 404.632812 718.496094 404.632812 718.496094 404.628906 Z M 735.609375 388.722656 C 735.609375 388.898438 735.75 389.042969 735.925781 389.042969 C 736.101562 389.042969 736.242188 388.898438 736.242188 388.722656 C 736.242188 388.550781 736.101562 388.410156 735.925781 388.410156 C 735.75 388.410156 735.609375 388.550781 735.609375 388.722656 Z M 736.839844 388.722656 C 736.839844 388.898438 736.984375 389.042969 737.15625 389.042969 C 737.332031 389.042969 737.472656 388.898438 737.472656 388.722656 C 737.472656 388.550781 737.332031 388.410156 737.15625 388.410156 C 736.984375 388.410156 736.839844 388.550781 736.839844 388.722656 Z M 738.089844 388.722656 C 738.089844 388.898438 738.234375 389.042969 738.40625 389.042969 C 738.582031 389.042969 738.722656 388.898438 738.722656 388.722656 C 738.722656 388.550781 738.582031 388.410156 738.40625 388.410156 C 738.234375 388.410156 738.089844 388.550781 738.089844 388.722656 Z M 732.375 388.722656 C 732.375 388.550781 732.234375 388.410156 732.058594 388.410156 C 731.882812 388.410156 731.742188 388.550781 731.742188 388.722656 C 731.742188 388.898438 731.882812 389.042969 732.058594 389.042969 C 732.234375 389.042969 732.375 388.898438 732.375 388.722656 Z M 730.5 389.597656 L 730.199219 389.597656 L 730.199219 387.765625 L 730.5 387.765625 L 730.5 387.324219 C 730.5 387.246094 730.566406 387.183594 730.644531 387.183594 L 732.324219 387.183594 L 735.433594 386.402344 C 735.542969 386.375 735.652344 386.441406 735.679688 386.550781 L 735.734375 386.757812 C 735.757812 386.867188 735.695312 386.980469 735.585938 387.007812 L 734.882812 387.183594 L 738.414062 387.183594 L 738.414062 382.980469 C 738.414062 382.867188 738.503906 382.773438 738.617188 382.773438 L 738.832031 382.773438 C 738.941406 382.773438 739.03125 382.867188 739.03125 382.980469 L 739.03125 387.183594 L 740.136719 387.183594 C 740.214844 387.183594 740.277344 387.246094 740.277344 387.324219 L 740.277344 387.765625 L 740.558594 387.765625 L 740.558594 389.597656 L 740.277344 389.597656 L 740.277344 390.125 C 740.277344 390.203125 740.214844 390.265625 740.136719 390.265625 L 730.644531 390.265625 C 730.566406 390.265625 730.5 390.203125 730.5 390.125 Z M 712.644531 389.796875 L 723.386719 389.796875 L 723.386719 383.433594 L 712.644531 383.433594 Z M 723.667969 386.617188 C 723.667969 386.800781 723.816406 386.949219 724 386.949219 C 724.183594 386.949219 724.335938 386.800781 724.335938 386.617188 C 724.335938 386.433594 724.183594 386.28125 724 386.28125 C 723.816406 386.28125 723.667969 386.433594 723.667969 386.617188 Z M 711.296875 389.800781 L 711.296875 383.433594 C 711.296875 383.066406 711.597656 382.765625 711.964844 382.765625 L 724.070312 382.765625 C 724.4375 382.765625 724.734375 383.066406 724.734375 383.433594 L 724.734375 389.800781 C 724.734375 390.167969 724.4375 390.464844 724.070312 390.464844 L 711.964844 390.464844 C 711.597656 390.464844 711.296875 390.167969 711.296875 389.800781 Z M 695.605469 397.871094 L 695.605469 398.074219 L 695.804688 398.074219 L 695.804688 397.871094 Z M 696.179688 397.871094 L 696.179688 398.074219 L 696.382812 398.074219 L 696.382812 397.871094 Z M 700.589844 396.769531 C 700.589844 396.65625 700.539062 396.578125 700.4375 396.539062 C 700.527344 396.480469 700.570312 396.40625 700.570312 396.316406 C 700.570312 396.230469 700.542969 396.160156 700.480469 396.101562 C 700.417969 396.046875 700.316406 396.019531 700.175781 396.019531 L 699.933594 396.019531 L 699.933594 397.070312 L 700.246094 397.070312 C 700.347656 397.070312 700.433594 397.042969 700.496094 396.988281 C 700.558594 396.933594 700.589844 396.859375 700.589844 396.769531 Z M 699.789062 396.019531 L 699.21875 396.019531 L 699.21875 396.261719 L 699.382812 396.261719 L 699.382812 397.070312 L 699.625 397.070312 L 699.625 396.261719 L 699.789062 396.261719 Z M 698.925781 396.019531 L 698.566406 396.019531 L 698.566406 396.242188 L 698.703125 396.242188 L 698.703125 397.070312 L 698.925781 397.070312 Z M 703.75 403.910156 L 702.796875 403.910156 C 702.808594 403.925781 702.816406 403.945312 702.816406 403.96875 L 702.816406 405.460938 C 702.816406 405.820312 702.671875 406.160156 702.414062 406.414062 C 702.164062 406.664062 701.832031 406.800781 701.480469 406.800781 C 701.472656 406.800781 701.464844 406.796875 701.457031 406.796875 L 697.242188 406.726562 C 696.527344 406.714844 695.953125 406.144531 695.929688 405.429688 L 695.898438 400.160156 L 695.46875 400.160156 C 695.394531 400.160156 695.335938 400.101562 695.335938 400.023438 L 695.335938 398.472656 L 695.953125 398.472656 L 695.953125 397.871094 L 696.066406 397.871094 L 696.066406 398.472656 L 696.683594 398.472656 L 696.683594 400.023438 C 696.683594 400.101562 696.621094 400.160156 696.550781 400.160156 L 696.132812 400.160156 L 696.164062 405.425781 C 696.183594 406.011719 696.65625 406.476562 697.246094 406.488281 L 701.460938 406.5625 C 701.753906 406.566406 702.039062 406.453125 702.25 406.246094 C 702.460938 406.035156 702.578125 405.757812 702.578125 405.460938 L 702.578125 403.96875 C 702.578125 403.945312 702.585938 403.925781 702.597656 403.910156 L 698.207031 403.910156 C 697.980469 403.910156 697.796875 403.722656 697.796875 403.496094 L 697.796875 395.886719 C 697.796875 395.660156 697.980469 395.476562 698.207031 395.476562 L 703.75 395.476562 C 703.980469 395.476562 704.164062 395.660156 704.164062 395.886719 L 704.164062 403.496094 C 704.164062 403.722656 703.980469 403.910156 703.75 403.910156 Z M 700.191406 396.640625 L 700.171875 396.640625 L 700.171875 396.867188 C 700.234375 396.863281 700.277344 396.855469 700.308594 396.839844 C 700.335938 396.820312 700.351562 396.792969 700.351562 396.75 C 700.351562 396.675781 700.300781 396.640625 700.191406 396.640625 Z M 700.332031 396.339844 C 700.332031 396.296875 700.320312 396.265625 700.292969 396.25 C 700.269531 396.230469 700.226562 396.222656 700.171875 396.222656 L 700.171875 396.449219 C 700.277344 396.445312 700.332031 396.410156 700.332031 396.339844 Z M 696.308594 390.226562 C 696.390625 390.28125 696.496094 390.300781 696.589844 390.273438 L 696.78125 390.222656 C 696.777344 390.210938 696.773438 390.199219 696.769531 390.1875 L 695.464844 385.539062 C 695.460938 385.53125 695.460938 385.523438 695.460938 385.515625 L 695.261719 385.582031 C 695.195312 385.601562 695.136719 385.640625 695.097656 385.695312 C 694.925781 385.917969 694.5625 386.617188 694.964844 388.152344 C 695.300781 389.425781 696.007812 390.023438 696.308594 390.226562 Z M 697.96875 389.847656 C 697.972656 389.867188 697.976562 389.882812 697.976562 389.902344 L 698.046875 389.882812 C 698.234375 389.832031 698.34375 389.640625 698.289062 389.457031 L 697.105469 385.347656 C 697.050781 385.164062 696.851562 385.058594 696.667969 385.117188 L 696.628906 385.132812 C 696.644531 385.152344 696.65625 385.175781 696.664062 385.199219 Z M 703.699219 390.347656 L 703.890625 390.398438 C 703.988281 390.421875 704.089844 390.40625 704.171875 390.351562 C 704.472656 390.144531 705.183594 389.546875 705.515625 388.273438 C 705.917969 386.742188 705.554688 386.042969 705.386719 385.816406 C 705.34375 385.761719 705.285156 385.726562 705.222656 385.703125 L 705.023438 385.636719 C 705.019531 385.648438 705.019531 385.65625 705.019531 385.664062 L 703.714844 390.3125 C 703.710938 390.324219 703.703125 390.335938 703.699219 390.347656 Z M 702.195312 389.582031 L 703.378906 385.472656 C 703.429688 385.285156 703.628906 385.183594 703.8125 385.242188 L 703.851562 385.253906 C 703.839844 385.277344 703.828125 385.300781 703.820312 385.324219 L 702.515625 389.972656 C 702.507812 389.992188 702.503906 390.007812 702.503906 390.027344 L 702.433594 390.007812 C 702.25 389.957031 702.140625 389.765625 702.195312 389.582031 " fill-opacity="1" fill-rule="nonzero"/></g></svg>